<?xml version="1.0" encoding="UTF-8"?>
<svg width="120px" height="30px" viewBox="0 0 120 30" version="1.1" xmlns="http://www.w3.org/2000/svg" xmlns:xlink="http://www.w3.org/1999/xlink">
    <!-- Generator: Sketch 52.1 (67048) - http://www.bohemiancoding.com/sketch -->
    <title>Antsrch</title>
    <desc>Created with Sketch.</desc>
    <g id="事务所web端" stroke="none" stroke-width="1" fill="none" fill-rule="evenodd">
        <g id="列表页" transform="translate(-410.000000, -2303.000000)" fill="#2243E3">
            <g id="Group-2" transform="translate(0.000000, 2201.000000)">
                <path d="M410,131.633252 L410,131.376528 L416.772422,104.493888 L426.290421,104.493888 L433.062843,131.376528 L433.062843,131.633252 L427.132398,131.633252 L425.52166,125.325183 L417.467968,125.325183 L415.893838,131.633252 L410,131.633252 Z M418.676022,120.300733 L424.350214,120.300733 L421.71446,109.188264 L421.311775,109.188264 L420.396583,113.185819 L418.676022,120.300733 Z M434.673581,131.633252 L434.673581,111.828851 L439.835265,111.828851 L440.164735,113.95599 L440.311165,113.95599 C443.496034,111.938875 444.66748,111.462103 446.680903,111.462103 C449.463087,111.462103 451.183649,113.479218 451.183649,116.743276 L451.183649,131.633252 L445.070165,131.633252 L445.070165,118.98044 C445.070165,117.403423 444.447834,116.779951 443.496034,116.779951 C442.690665,116.779951 441.738865,117.220049 440.787065,117.770171 L440.787065,131.633252 L434.673581,131.633252 Z M462.458816,131.853301 C458.212325,131.853301 455.979256,129.872861 455.979256,126.168704 L455.979256,116.963325 L453.160464,116.963325 L453.160464,111.828851 L456.345333,111.828851 L457.150702,106.070905 L462.092739,105.484108 L462.092739,111.828851 L465.790116,111.828851 L465.790116,116.963325 L462.129347,116.963325 L462.129347,124.628362 C462.129347,126.645477 462.751678,127.342298 464.069555,127.342298 C464.545455,127.342298 465.167785,127.268949 465.826724,127.085575 L465.826724,131.486553 C464.838316,131.743276 463.630262,131.853301 462.458816,131.853301 Z M473.624161,132 C471.683954,132 469.633923,131.633252 467.693716,130.93643 L467.693716,126.462103 C469.231239,127.085575 471.610738,127.525672 473.514338,127.525672 C475.015253,127.525672 475.784015,127.012225 475.784015,125.98533 C475.784015,122.647922 467.730323,126.572127 467.730323,117.99022 C467.730323,113.845966 470.219646,111.462103 474.612569,111.462103 C476.33313,111.462103 478.566199,111.792176 480.543014,112.268949 L480.543014,116.743276 C478.200122,116.193154 477.138499,116.046455 475.930445,116.046455 C474.283099,116.046455 473.404515,116.669927 473.404515,117.733496 C473.404515,120.924205 481.604637,117.733496 481.604637,125.545232 C481.604637,129.652812 478.71263,132 473.624161,132 Z M484.057352,131.633252 L484.057352,111.828851 L489.219036,111.828851 L489.548505,114.762836 L489.804759,114.762836 C490.134228,114.139364 492.95302,112.232274 494.783405,111.498778 L495.918243,111.498778 L495.918243,117.220049 L493.42892,117.220049 C492.367297,117.403423 490.646736,118.210269 490.170836,118.833741 L490.170836,131.633252 L484.057352,131.633252 Z M507.010372,131.963325 C500.494204,131.963325 497.23612,128.809291 497.23612,121.731051 C497.23612,114.689487 500.494204,111.498778 507.010372,111.498778 C508.364857,111.498778 509.719341,111.682152 510.780964,112.085575 L510.780964,116.853301 C509.609518,116.596577 508.547895,116.449878 507.669311,116.449878 C504.630872,116.449878 503.496034,117.91687 503.496034,121.694377 C503.496034,125.471883 504.66748,127.0489 507.632703,127.0489 C508.694326,127.0489 509.682733,126.938875 510.780964,126.645477 L510.780964,131.376528 C509.792556,131.743276 508.364857,131.963325 507.010372,131.963325 Z M513.489933,131.633252 L513.489933,102 L519.603417,102 L519.603417,113.662592 C522.422209,111.9022 523.66687,111.462103 525.497254,111.462103 C528.279439,111.462103 530,113.479218 530,116.743276 L530,131.633252 L523.886516,131.633252 L523.886516,118.98044 C523.886516,117.513447 523.374009,116.779951 522.312386,116.779951 C521.61684,116.779951 520.701647,117.146699 519.603417,117.770171 L519.603417,131.633252 L513.489933,131.633252 Z" id="Antsrch"></path>
            </g>
        </g>
    </g>
</svg>