<?xml version="1.0" encoding="UTF-8"?>
<svg width="21px" height="22px" viewBox="0 0 21 22" version="1.1" xmlns="http://www.w3.org/2000/svg" xmlns:xlink="http://www.w3.org/1999/xlink">
    <!-- Generator: Sketch 52.1 (67048) - http://www.bohemiancoding.com/sketch -->
    <title>ic-home-web</title>
    <desc>Created with Sketch.</desc>
    <g id="事务所web端" stroke="none" stroke-width="1" fill="none" fill-rule="evenodd">
        <g id="详情页" transform="translate(-443.000000, -893.000000)">
            <g id="Group-22" transform="translate(410.000000, 181.000000)">
                <g id="ic-home-web" transform="translate(31.000000, 711.000000)">
                    <rect id="Rectangle" fill-rule="nonzero" x="0" y="0" width="24" height="24"></rect>
                    <path d="M9.33726925,9.69933528 C9.33726925,9.69933528 9.44898758,7.24724179 12.1528293,7.02954656 C14.4716037,6.81188576 15.685298,7.84790981 16.0704699,9.8096466 L9.33726925,9.69933528 Z M9.44898758,20.3262103 C6.90977608,22.3981895 4.81415925,22.1253214 3.98549735,20.926775 C3.26827473,19.8357158 3.15669592,17.9291519 3.98549735,15.2593632 C4.3705297,16.2953872 4.97885921,17.2761351 5.86053762,18.1468127 C6.96547829,19.2351855 8.17931207,19.943203 9.44898758,20.3262103 Z M22.7476892,5.88348671 C23.1885633,4.35710595 23.3560187,1.41448356 20.5963353,1.03430041 C18.3892792,0.761466737 15.7411746,2.17767394 14.3598854,3.10621075 C13.9191508,3.05107231 13.4223653,2.99603719 12.9257541,2.99603719 C9.33726925,2.94089875 7.02135489,4.13941072 5.03459629,6.70171221 C4.3175132,7.62742494 3.65616719,9.20897857 3.43300957,11.0053689 C4.42637143,9.31646581 7.51796607,6.2113555 10.7744002,4.95763622 C10.7744002,4.95763622 5.86339772,8.44575376 3.43300957,13.3499752 L3.43300957,13.4051481 C3.32143076,13.6228088 3.21257253,13.8404696 3.10095883,14.1131656 C0.729167875,19.943203 2.66008475,22.4504694 4.48210852,22.8858254 C6.13681638,23.321147 8.45562572,22.5055045 10.330666,20.5439055 C13.4753818,21.251923 16.6229576,20.4337319 17.7809497,19.8357158 C19.9881453,18.6373071 21.5338555,16.5129447 21.8660108,14.3308263 L15.7941562,14.3308263 C15.7941562,14.3308263 15.5179821,16.2374247 12.261548,16.2374247 C9.28156704,16.2374247 9.11683221,12.8044456 9.11683221,12.8044456 L21.9747644,12.8044456 C21.9747644,12.8044456 22.1952015,9.09877058 20.3731777,6.64667709 C19.3239392,5.28550501 17.9455101,4.08427228 16.0146281,3.43125546 C16.6229576,2.99603719 17.6163544,2.34019629 18.4979979,2.1225355 C20.1527407,1.68731723 21.2576813,1.96001314 21.9747644,3.15855955 C22.9123892,4.79242754 21.4222767,8.55327543 21.4222767,8.55327543 C21.4222767,8.55327543 22.3067803,7.46490258 22.7476892,5.88348671 Z" id="Fill-1" fill="#5D6D7E"></path>
                </g>
            </g>
        </g>
    </g>
</svg>