<?xml version="1.0" encoding="UTF-8"?>
<svg width="17px" height="23px" viewBox="0 0 17 23" version="1.1" xmlns="http://www.w3.org/2000/svg" xmlns:xlink="http://www.w3.org/1999/xlink">
    <!-- Generator: Sketch 52.1 (67048) - http://www.bohemiancoding.com/sketch -->
    <title>ic-home-address</title>
    <desc>Created with Sketch.</desc>
    <g id="事务所web端" stroke="none" stroke-width="1" fill="none" fill-rule="evenodd">
        <g id="详情页" transform="translate(-444.000000, -752.000000)">
            <g id="Group-22" transform="translate(410.000000, 181.000000)">
                <g id="ic-home-address" transform="translate(31.000000, 571.000000)">
                    <rect id="Rectangle" fill-rule="nonzero" x="0" y="0" width="24" height="24"></rect>
                    <g id="dizhi" transform="translate(3.200000, 0.800000)" fill="#5D6D7E">
                        <path d="M16.2239865,8.1155494 C16.2239865,3.64724458 12.720809,0.0249506024 8.39937079,0.0249506024 C4.07796404,0.0249506024 0.574660674,3.64724458 0.574660674,8.1155494 C0.574660674,11.7650386 2.91171685,14.8496747 6.12253034,15.8578482 L8.39937079,18.2120855 L10.6761169,15.8578482 C13.8869303,14.8496747 16.2239865,11.7650386 16.2239865,8.1155494 Z M8.39937079,5.373 C9.86427416,5.373 11.0517888,6.60088193 11.0517888,8.1155494 C11.0517888,9.6302494 9.86427416,10.8581313 8.39937079,10.8581313 C6.93449888,10.8581313 5.74698427,9.6302494 5.74698427,8.1155494 C5.74698427,6.60088193 6.93449888,5.373 8.39937079,5.373 Z" id="Fill-1"></path>
                        <path d="M0,20.2973313 C0,20.7626422 1.60093933,21.192788 4.19962247,21.4254434 C6.79846292,21.6581313 10.0001843,21.6581313 12.5990247,21.4254434 C15.1978337,21.192788 16.7986472,20.7626422 16.7986472,20.2973313 C16.7986472,19.5777325 13.0382472,18.9944675 8.39937079,18.9944675 C3.76052584,18.9944675 0,19.5777325 0,20.2973313 Z" id="Fill-3"></path>
                    </g>
                </g>
            </g>
        </g>
    </g>
</svg>