<?xml version="1.0" encoding="UTF-8"?>
<svg width="17px" height="20px" viewBox="0 0 17 20" version="1.1" xmlns="http://www.w3.org/2000/svg" xmlns:xlink="http://www.w3.org/1999/xlink">
    <!-- Generator: Sketch 52.1 (67048) - http://www.bohemiancoding.com/sketch -->
    <title>ic-home-service</title>
    <desc>Created with Sketch.</desc>
    <g id="事务所web端" stroke="none" stroke-width="1" fill="none" fill-rule="evenodd">
        <g id="详情页" transform="translate(-445.000000, -708.000000)">
            <g id="Group-22" transform="translate(410.000000, 181.000000)">
                <g id="ic-home-service" transform="translate(31.000000, 525.000000)">
                    <rect id="Rectangle" fill-rule="nonzero" x="0" y="0" width="24" height="24"></rect>
                    <path d="M14.7430871,11.7499875 L15.2152165,14.5000153 C15.2152165,14.8749913 14.9791518,15.1250648 14.7430871,14.8749913 L12.5000115,13.6250142 L12.1458453,13.6250142 L9.90276977,14.8749913 C9.6667051,15.0000159 9.31244668,14.7499667 9.43054819,14.5000153 L9.90276977,12.000061 C9.90276977,11.8750121 9.90276977,11.7499875 9.78469132,11.6249629 L7.89585111,9.75003387 C7.6596942,9.49998474 7.77777265,9.1250087 8.13191578,9.1250087 L10.6110791,8.75000824 C10.7291575,8.75000824 10.847236,8.62498367 10.847236,8.49995911 L11.9096884,6.12502945 C12.0277669,5.87498032 12.3819331,5.87498032 12.61809,6.12502945 L13.6805424,8.49995911 C13.6805424,8.62498367 13.7986209,8.75000824 13.9166071,8.75000824 L16.3958626,9.1250087 C16.7500058,9.1250087 16.867992,9.62500931 16.6319273,9.75003387 L14.7430871,11.7499875 Z M18.2847028,2 L6.36106179,2 C5.06245244,2 4,3.12495255 4,4.49995422 L4,22 L5.06245244,22 L7.30552801,20.2500223 C7.42360647,20.1249733 7.6596942,20.1249733 7.77777265,20.2500223 L9.78469132,21.7500485 C9.90276977,21.8749754 10.1388344,21.8749754 10.2569129,21.7500485 L12.2638316,20.2500223 C12.3819331,20.1249733 12.61809,20.1249733 12.7360762,20.2500223 L14.7430871,21.7500485 C14.8610733,21.8749754 15.0972302,21.8749754 15.2152165,21.7500485 L17.2222273,20.2500223 C17.3402366,20.1249733 17.5763935,20.1249733 17.694472,20.2500223 L19.9374553,22 L21,22 L21,4.49995422 C20.6458569,3.12495255 19.5833122,2 18.2847028,2 Z" id="Fill-1" fill="#5D6D7E"></path>
                </g>
            </g>
        </g>
    </g>
</svg>