<?xml version="1.0" encoding="UTF-8"?>
<svg width="21px" height="27px" viewBox="0 0 21 27" version="1.1" xmlns="http://www.w3.org/2000/svg" xmlns:xlink="http://www.w3.org/1999/xlink">
    <!-- Generator: Sketch 52.1 (67048) - http://www.bohemiancoding.com/sketch -->
    <title>ic-home-phone</title>
    <desc>Created with Sketch.</desc>
    <g id="事务所web端" stroke="none" stroke-width="1" fill="none" fill-rule="evenodd">
        <g id="首页" transform="translate(-700.000000, -2325.000000)">
            <g id="ic-home-phone" transform="translate(696.000000, 2324.000000)">
                <rect id="Rectangle" fill-rule="nonzero" x="0" y="0" width="30" height="30"></rect>
                <g id="dizhi" transform="translate(4.000000, 1.000000)" fill="#687481">
                    <path d="M20.2799831,10.1444367 C20.2799831,4.55905572 15.9010112,0.031188253 10.4992135,0.031188253 C5.09745506,0.031188253 0.718325843,4.55905572 0.718325843,10.1444367 C0.718325843,14.7062982 3.63964607,18.5620934 7.65316292,19.8223102 L10.4992135,22.7651069 L13.3451461,19.8223102 C17.3586629,18.5620934 20.2799831,14.7062982 20.2799831,10.1444367 Z M10.4992135,6.71625 C12.3303427,6.71625 13.814736,8.25110241 13.814736,10.1444367 C13.814736,12.0378117 12.3303427,13.5726642 10.4992135,13.5726642 C8.6681236,13.5726642 7.18373034,12.0378117 7.18373034,10.1444367 C7.18373034,8.25110241 8.6681236,6.71625 10.4992135,6.71625 Z" id="Fill-1"></path>
                    <path d="M0,25.3716642 C0,25.9533027 2.00117416,26.4909849 5.24952809,26.7818042 C8.49807865,27.0726642 12.5002303,27.0726642 15.7487809,26.7818042 C18.9972921,26.4909849 20.998309,25.9533027 20.998309,25.3716642 C20.998309,24.4721657 16.297809,23.7430843 10.4992135,23.7430843 C4.7006573,23.7430843 0,24.4721657 0,25.3716642 Z" id="Fill-3"></path>
                </g>
            </g>
        </g>
    </g>
</svg>