<?xml version="1.0" encoding="UTF-8"?>
<svg width="20px" height="20px" viewBox="0 0 20 20" version="1.1" xmlns="http://www.w3.org/2000/svg" xmlns:xlink="http://www.w3.org/1999/xlink">
    <!-- Generator: Sketch 52.1 (67048) - http://www.bohemiancoding.com/sketch -->
    <title>ic-home-country</title>
    <desc>Created with Sketch.</desc>
    <g id="事务所web端" stroke="none" stroke-width="1" fill="none" fill-rule="evenodd">
        <g id="详情页" transform="translate(-443.000000, -662.000000)">
            <g id="Group-22" transform="translate(410.000000, 181.000000)">
                <g id="ic-home-country" transform="translate(31.000000, 479.000000)">
                    <rect id="Rectangle" fill-rule="nonzero" x="0" y="0" width="24" height="24"></rect>
                    <path d="M6.90519512,4.56378973 C7.30478049,5.63528117 7.78439024,6.76696822 8.03409756,6.82704156 C8.50360976,6.93723716 9.98219512,7.32777506 10.242,7.61821516 C10.5017073,7.90865526 10.8513659,8.2792176 10.771439,8.5696577 C10.6915122,8.86 9.40273171,9.33075795 9.03314634,9.70122249 C8.6634878,10.0718093 8.21390244,11.153423 8.3737561,11.4638142 C8.53363415,11.7843276 7.71446341,12.3050367 8.05412195,12.6756235 C8.39378049,13.0461858 8.79334146,13.3065526 9.26285366,13.2264059 C9.73246341,13.1463814 10.0221951,13.4367237 10.3718537,13.6170416 C10.7115122,13.7972616 10.9212927,13.6170416 11.0511707,13.7773105 C11.1810244,13.9374572 10.9212927,14.5383863 11.2609512,14.6185086 C11.6006098,14.6985575 12.26,14.4381907 12.5996585,14.8288264 C12.9393171,15.2193643 12.9693171,16.1507335 12.4197805,16.3811002 C11.8703415,16.6213936 11.2909756,17.6228851 11.1810244,18.0635697 C11.0711707,18.5141565 9.86231707,19.4055501 9.76239024,19.806088 C9.73246341,19.9262347 9.64253659,20.2566993 9.53268293,20.647335 C9.29287805,20.5772127 9.05307317,20.4970905 8.82336585,20.4169682 C8.97321951,19.996357 9.07307317,19.655868 9.05307317,19.5457457 C8.97321951,19.2051834 9.02314634,18.624401 9.23295122,18.1736919 C9.44273171,17.7229829 9.41273171,17.2523227 9.31287805,16.9118337 C9.20292683,16.5713692 8.76343902,16.300978 8.73341463,16.0405379 C8.70341463,15.7801711 8.23390244,15.6700733 8.3637561,14.9289242 C8.49360976,14.1878729 8.52363415,13.6871394 8.31382927,13.4768215 C8.10404878,13.2665281 7.42473171,12.635599 7.105,12.635599 C6.78534146,12.635599 6.15597561,12.5854523 6.07602439,12.3451589 C5.99609756,12.1047677 5.5765122,10.8930562 5.20682927,10.7928851 C4.83726829,10.6827628 4.4975122,10.7428362 4.31773171,10.161956 C4.24780488,9.94161369 3.82821951,9.73132029 3.32870732,9.56102689 C3.89814634,7.51811736 5.18692683,5.75552567 6.90519512,4.56378973 Z M20.9814146,12.1348411 C20.0923171,12.29511 19.1332927,12.5054279 19.0433659,12.7356968 C18.8834878,13.1563081 19.2232439,13.1864059 19.2531463,13.5268704 C19.2831707,13.8673594 18.0443171,14.7085819 18.0443171,14.999022 C18.0443171,15.2894621 18.304122,15.9504645 18.304122,16.3209291 C18.304122,16.6915159 17.9643659,16.821687 17.8545122,17.1922494 C17.7446585,17.5628117 17.4349268,17.5628117 17.1152927,17.9333007 C16.7955366,18.3038631 16.5058049,18.4841809 16.276122,18.4340342 C16.0362927,18.3840098 16.0362927,18.0635697 15.8564146,17.5427628 C15.6766341,17.0120293 15.6167073,16.0405379 15.7465854,15.65 C15.876439,15.2593643 15.6666341,15.0992176 15.4568537,14.8288264 C15.2470488,14.5683863 15.5367805,14.3280929 15.4568537,14.0476773 C15.3769024,13.7672616 15.0372683,13.9575306 14.5078293,14.0376528 C13.9782927,14.1177751 13.4588293,13.7972616 13.0092439,13.0361614 C12.5596585,12.2750611 13.688561,11.2435697 13.7485854,10.9831296 C13.7984878,10.7227873 13.6686341,10.0918582 13.7485854,9.74134474 C13.8284146,9.40085575 14.3579512,9.2906357 14.2980244,9.0001956 C14.248,8.7098533 14.427878,8.07894866 14.4578049,7.83855746 C14.4878049,7.59816626 15.2770732,7.41794621 15.4568537,7.38784841 C15.6367317,7.35787286 15.716561,6.80706601 15.8465122,6.59677262 C15.9263659,6.47652812 17.2850732,6.06594132 18.4339756,5.73547677 C20.0123902,7.35787286 20.9814146,9.56102689 20.9814146,11.9946455 L20.9814146,12.1348411 Z M19.0633659,19.0749878 C19.2232439,18.9147433 19.383,18.7445232 19.532878,18.5742543 C21.0613659,16.8116626 21.9904878,14.5183374 21.9904878,11.9946455 C21.9904878,7.22767726 18.6636829,3.23176039 14.2080732,2.23036675 C14.1880732,2.23036675 14.1780732,2.2203423 14.1581707,2.2203423 C14.0882195,2.20026895 14.0182927,2.1902445 13.9483659,2.18022005 C13.9283659,2.18022005 13.8983415,2.1702934 13.878439,2.1702934 C13.8185122,2.1602445 13.7584878,2.15022005 13.688561,2.1401956 C13.6586341,2.1401956 13.6286341,2.13017115 13.5987073,2.13017115 C13.5387805,2.1201467 13.4787561,2.11012225 13.4288293,2.10017115 C13.3989268,2.10017115 13.3689024,2.0901467 13.3289756,2.0901467 C13.2689756,2.08012225 13.2190488,2.08012225 13.159122,2.0700978 C13.1290976,2.0700978 13.0891707,2.06007335 13.0591707,2.06007335 C13.0092439,2.0500489 12.9493171,2.0500489 12.8993902,2.04002445 C12.8693902,2.04002445 12.8294634,2.03007335 12.7994634,2.03007335 C12.7395366,2.03007335 12.6896098,2.0200489 12.6295854,2.0200489 C12.5996585,2.0200489 12.5596585,2.0200489 12.5297317,2.01002445 C12.4698049,2.01002445 12.409878,2 12.3498537,2 L11.9902927,2 C11.8803415,2 11.7704878,2 11.6605366,2.01002445 L11.5706829,2.01002445 C11.4707561,2.01002445 11.3708049,2.0200489 11.2709512,2.03007335 L11.2409512,2.03007335 C11.1310976,2.04002445 11.0211463,2.0500489 10.9012927,2.06007335 C10.8812927,2.06007335 10.8613659,2.06007335 10.8413659,2.0700978 C10.7315122,2.08012225 10.6315854,2.10017115 10.5217317,2.11012225 L10.5117073,2.11012225 C10.3917561,2.13017115 10.2719024,2.15022005 10.1620732,2.1702934 L10.1520488,2.1702934 C5.73636585,2.97139364 2.33965854,6.70689487 2.02,11.2936186 L2.02,11.3236186 C2.01,11.4137653 2.01,11.5039364 2.01,11.6040098 L2.01,11.6841565 C2.01,11.7843276 2,11.8944499 2,11.9946455 C2,12.1147922 2,12.2349389 2.01,12.3451589 L2.01,12.4252812 C2.02,12.5454279 2.02,12.6555746 2.03,12.7758191 L2.03,12.8158191 C2.03992683,12.9260391 2.04992683,13.0261369 2.05992683,13.1363325 C2.05992683,13.1663325 2.06992683,13.1864059 2.06992683,13.2164792 C2.07992683,13.3266015 2.09995122,13.4467482 2.11985366,13.5569438 C2.11985366,13.5769193 2.12985366,13.5969927 2.12985366,13.6170416 C2.14987805,13.7171394 2.15987805,13.8173105 2.17978049,13.9175061 C2.17978049,13.9374572 2.18978049,13.9575306 2.18978049,13.9775795 C2.20980488,14.0877017 2.23980488,14.1978973 2.25970732,14.308044 C2.25970732,14.3280929 2.26973171,14.348044 2.26973171,14.3681174 C2.29973171,14.4682885 2.31963415,14.5784108 2.34965854,14.6785819 C2.34965854,14.6886308 2.35965854,14.6985575 2.35965854,14.7085819 C2.38958537,14.818802 2.42958537,14.9289242 2.4595122,15.0391443 C2.4695122,15.0590954 2.4695122,15.0791687 2.4795122,15.0891687 C2.54943902,15.309511 2.62939024,15.5298533 2.71931707,15.7500978 C2.72931707,15.7601222 2.72931707,15.7801711 2.7392439,15.7901956 C2.82917073,16.0105379 2.92912195,16.2308802 3.03897561,16.4411736 C3.03897561,16.451198 3.04897561,16.4611491 3.04897561,16.4611491 C4.58746341,19.5457457 7.66443902,21.7088998 11.2709512,21.9692421 L11.2909756,21.9692421 C11.3908049,21.9792665 11.4907561,21.9792665 11.5806098,21.989291 L11.6505366,21.989291 C11.7604878,21.989291 11.8603171,21.9993154 11.9702683,21.9993154 C14.248,21.9993154 16.3559512,21.2281907 18.0342927,19.9463081 C18.1142439,19.8862347 18.1941707,19.8161125 18.2740976,19.7560391 C18.304122,19.7359902 18.3240244,19.7159413 18.3540488,19.6958924 C18.4339756,19.6357946 18.5039024,19.5657213 18.5738537,19.5056479 C18.7536341,19.3654279 18.9034878,19.2252323 19.0633659,19.0749878 C19.0533659,19.0749878 19.0533659,19.0749878 19.0633659,19.0749878 Z" id="Fill-1" fill="#5D6D7E"></path>
                </g>
            </g>
        </g>
    </g>
</svg>