<svg xmlns="http://www.w3.org/2000/svg" viewBox="0 0 230.673 59.013">
  <defs>
    <style>
      .cls-1 {
        fill: #00a3e3;
      }

      .cls-2 {
        fill: #231f20;
      }

      .cls-3 {
        fill: none;
        stroke: #00a3e3;
        stroke-miterlimit: 10;
        stroke-width: 2.042px;
      }
    </style>
  </defs>
  <g id="logo_color" data-name="logo color" transform="translate(1 0)">
    <path id="Fill_1" data-name="Fill 1" class="cls-1" d="M11.751,27.885C4.393,27.885,0,25.131,0,20.517c0-3.415,2.214-5.7,7.179-7.406C5.427,11.877,3.1,9.926,3.1,7.255a6.378,6.378,0,0,1,2.8-5.2A12.32,12.32,0,0,1,13.11,0a12.694,12.694,0,0,1,7.1,1.819A5.639,5.639,0,0,1,22.9,6.612c0,3.308-2.25,5.762-6.687,7.293l7.4,5.1a11.253,11.253,0,0,0,2.456-6.915h4.649a14.105,14.105,0,0,1-3.59,9.3,10.856,10.856,0,0,0,4.308,1.662c.443.034,1.257.038,1.587.038v4.27H31.1a10.526,10.526,0,0,1-6.385-2.306l-.793-.528C20.779,26.848,17.027,27.885,11.751,27.885Zm-.795-12.2-.68.227C6.8,17.1,5.44,18.281,5.44,20.1c0,2.319,2.515,3.7,6.727,3.7A16.076,16.076,0,0,0,20.1,21.915ZM13.072,3.816a6.341,6.341,0,0,0-3.423.836,2.587,2.587,0,0,0-1.3,2.225c0,1.538,1.451,2.644,3.665,4.156l.416.3.68-.226c3.095-1,4.8-2.458,4.8-4.118C17.909,4.973,16.146,3.816,13.072,3.816Z" transform="translate(169.108 0)"/>
    <path id="Fill_3" data-name="Fill 3" class="cls-2" d="M33.477,26.827,19.459,0H14.018L0,26.827H5.743L16.587,5.063l10.92,21.764Z" transform="translate(15.333 0.53)"/>
    <path id="Fill_4" data-name="Fill 4" class="cls-2" d="M0,0V26.827H23.842V22.293H5.214V0Z" transform="translate(50.394 0.53)"/>
    <path id="Fill_5" data-name="Fill 5" class="cls-2" d="M29.132,14.887V0H23.88V14.434c0,5.365-3.4,8.388-9.295,8.388-5.932,0-9.371-3.023-9.371-8.388V0H0V14.887C0,22.9,5.214,27.356,14.585,27.356c9.333,0,14.547-4.459,14.547-12.469" transform="translate(74.327 0.53)"/>
    <path id="Fill_7" data-name="Fill 7" class="cls-2" d="M0,0V26.827H5.214v-6.8l5.97-5.1,10.958,11.9h6.914L14.963,11.638,28.565,0h-6.99L5.214,14.245V0Z" transform="translate(106.329 0.53)"/>
    <path id="Fill_8" data-name="Fill 8" class="cls-2" d="M16.247,27.884c-4.888,0-9.005-1.347-11.906-3.9A12.943,12.943,0,0,1,0,13.942,12.943,12.943,0,0,1,4.34,3.9C7.242,1.347,11.359,0,16.247,0s9,1.347,11.888,3.9a12.961,12.961,0,0,1,4.322,10.046,12.961,12.961,0,0,1-4.322,10.046C25.243,26.536,21.133,27.884,16.247,27.884Zm0-23.426c-6.61,0-10.881,3.723-10.881,9.484s4.271,9.484,10.881,9.484c6.588,0,10.845-3.723,10.845-9.484S22.835,4.458,16.247,4.458Z" transform="translate(131.224 0.001)"/>
    <path id="Fill_10" data-name="Fill 10" class="cls-2" d="M16.248,27.884c-4.888,0-9.006-1.347-11.907-3.9A12.943,12.943,0,0,1,0,13.942,12.943,12.943,0,0,1,4.34,3.9C7.242,1.347,11.359,0,16.248,0s9,1.347,11.888,3.9a12.962,12.962,0,0,1,4.321,10.046,12.962,12.962,0,0,1-4.321,10.046C25.244,26.536,21.133,27.884,16.248,27.884Zm0-23.426c-6.611,0-10.882,3.723-10.882,9.484s4.271,9.484,10.882,9.484c6.588,0,10.844-3.723,10.844-9.484S22.835,4.458,16.248,4.458Z" transform="translate(15.905 30.943)"/>
    <path id="Fill_13" data-name="Fill 13" class="cls-2" d="M24.674,0,15.417,12.883,6.273,0H0L12.62,17.23v9.6h5.253v-9.6L30.529,0Z" transform="translate(44.771 31.472)"/>
    <path id="Fill_14" data-name="Fill 14" class="cls-2" d="M0,0V26.825H27.13v-4.42H5.215V15.34H23.426V10.92H5.215v-6.5H27.13V0Z" transform="translate(75.527 31.472)"/>
    <path id="Fill_15" data-name="Fill 15" class="cls-2" d="M20.63,26.827H0V0H20.214c5.165,0,8.5,2.818,8.5,7.179A6.1,6.1,0,0,1,25.315,13a6.261,6.261,0,0,1,4.081,6.16,7.223,7.223,0,0,1-2.442,5.506A9.508,9.508,0,0,1,20.63,26.827ZM5.214,15.3v7.1H20.1c2.433,0,4.005-1.409,4.005-3.589,0-2.069-1.647-3.514-4.005-3.514Zm0-10.882v6.5H19.572c2.269,0,3.854-1.367,3.854-3.325S21.92,4.421,19.5,4.421Z" transform="translate(106.223 31.472)"/>
    <path id="Fill_17" data-name="Fill 17" class="cls-2" d="M16.247,27.884c-4.888,0-9.005-1.347-11.906-3.9A12.943,12.943,0,0,1,0,13.942,12.943,12.943,0,0,1,4.34,3.9C7.242,1.347,11.359,0,16.247,0s9,1.347,11.888,3.9a12.961,12.961,0,0,1,4.322,10.046,12.961,12.961,0,0,1-4.322,10.046C25.243,26.536,21.133,27.884,16.247,27.884Zm0-23.426c-6.61,0-10.881,3.723-10.881,9.484s4.271,9.484,10.881,9.484c6.588,0,10.845-3.723,10.845-9.484S22.835,4.458,16.247,4.458Z" transform="translate(136.143 30.943)"/>
    <path id="Fill_19" data-name="Fill 19" class="cls-2" d="M59.321,26.827H32.192v-11.5H29.245a13.56,13.56,0,0,1-1.427,4.87,11.193,11.193,0,0,1-3,3.611,13.256,13.256,0,0,1-4.433,2.245,20.014,20.014,0,0,1-5.723.772H0V0H14.7c8.208,0,13.485,3.986,14.476,10.937h3.018V0H59.321V4.421H37.406v6.5H55.618v4.42H37.406v7.067H59.321v4.42ZM5.214,4.421V22.406h8.842c6.408,0,9.937-3.207,9.937-9.032,0-5.774-3.529-8.954-9.937-8.954Z" transform="translate(170.353 31.472)"/>
    <path id="Stroke_22" data-name="Stroke 22" class="cls-3" d="M0,0V58.053" transform="translate(0.021 0.961)"/>
  </g>
</svg>
