<?xml version="1.0" encoding="utf-8"?>
<!-- Generator: Adobe Illustrator 21.1.0, SVG Export Plug-In . SVG Version: 6.00 Build 0)  -->
<!DOCTYPE svg PUBLIC "-//W3C//DTD SVG 1.1//EN" "http://www.w3.org/Graphics/SVG/1.1/DTD/svg11.dtd">
<svg version="1.1" id="Layer_1" xmlns="http://www.w3.org/2000/svg" xmlns:xlink="http://www.w3.org/1999/xlink" x="0px" y="0px"
	 viewBox="0 0 650 201" style="enable-background:new 0 0 650 201;" xml:space="preserve">
<style type="text/css">
	.st0{fill:#231F20;}
	.st1{fill:#231F20;stroke:#231F20;stroke-width:2.8346;stroke-linecap:round;stroke-linejoin:round;stroke-miterlimit:10;}
	.st2{fill:#A0B18E;}
</style>
<path class="st0" d="M212.2,72.3c-0.6,0.1-1.3,0.2-2.2,0.3c-0.9,0.1-1.7,0.4-2.3,0.6c-0.7,0.3-1.2,0.8-1.5,1.5
	c-0.3,0.6-0.4,1.4-0.4,2.2v3.8c0,2.8,0,4.6,0.1,5.6s0.1,1.8,0.1,2.4c-3,1.4-6.1,2.4-9.1,3.2c-3,0.7-6,1.1-8.9,1.1
	c-3.1,0-6.1-0.6-9-1.8c-2.9-1.2-5.4-2.8-7.6-5c-2.2-2.2-3.9-4.8-5.2-8c-1.3-3.1-1.9-6.6-1.9-10.5c0-3.7,0.6-7.2,1.8-10.3
	c1.2-3.2,3-5.9,5.2-8.3c2.2-2.3,4.8-4.1,7.8-5.4c3-1.3,6.2-1.9,9.7-1.9c2.8,0,5.1,0.3,7.2,1c2,0.7,3.8,1.5,5.4,2.4l1.4-2.3h2.8
	l0.3,17.1h-2.8c-0.5-1.9-1.1-3.7-1.8-5.6c-0.7-1.8-1.6-3.5-2.8-4.9c-1.1-1.4-2.5-2.6-4.1-3.5c-1.6-0.9-3.6-1.3-5.8-1.3
	c-2.5,0-4.6,0.5-6.6,1.5c-1.9,1-3.6,2.5-5,4.5c-1.4,1.9-2.5,4.3-3.2,7.1c-0.8,2.8-1.1,6-1.1,9.5c0,3.1,0.4,6,1.1,8.8
	c0.7,2.7,1.8,5.1,3.3,7.1c1.4,2,3.2,3.6,5.3,4.8c2.1,1.2,4.6,1.8,7.3,1.8c2,0,3.9-0.3,5.5-0.9c1.7-0.6,2.8-1.3,3.5-2
	c0.2-1.2,0.3-2.4,0.3-3.6c0-1.2,0-2.2,0-3.1v-2.7c0-1-0.1-1.8-0.4-2.6c-0.3-0.7-0.8-1.3-1.6-1.6c-0.8-0.3-1.8-0.6-3.1-0.8
	c-1.3-0.2-2.3-0.3-3-0.3v-2.5h21.4V72.3z"/>
<path class="st0" d="M245.6,91.1c-1.1,0.4-2,0.7-2.8,0.9c-0.8,0.2-1.7,0.4-2.8,0.4c-1.8,0-3.2-0.4-4.3-1.3c-1.1-0.8-1.7-2.1-2-3.7
	h-0.2c-1.5,1.7-3.1,2.9-4.8,3.8c-1.7,0.9-3.8,1.3-6.2,1.3c-2.5,0-4.6-0.8-6.3-2.3c-1.6-1.6-2.5-3.6-2.5-6.1c0-1.3,0.2-2.5,0.6-3.5
	c0.4-1,0.9-2,1.7-2.8c0.6-0.7,1.3-1.3,2.3-1.8c0.9-0.5,1.8-1,2.6-1.3c1-0.4,3.1-1.1,6.3-2.2c3.2-1.1,5.3-1.9,6.4-2.5v-3.4
	c0-0.3-0.1-0.9-0.2-1.7c-0.1-0.8-0.4-1.7-0.8-2.4c-0.5-0.8-1.1-1.6-1.9-2.2c-0.8-0.6-2-0.9-3.6-0.9c-1.1,0-2,0.2-2.9,0.5
	c-0.9,0.4-1.5,0.7-1.9,1.1c0,0.5,0.1,1.1,0.3,2c0.2,0.9,0.3,1.7,0.3,2.5c0,0.8-0.4,1.5-1.1,2.2c-0.7,0.7-1.7,1-3,1
	c-1.1,0-2-0.4-2.5-1.2c-0.5-0.8-0.8-1.7-0.8-2.7c0-1.1,0.4-2.1,1.1-3c0.7-1,1.7-1.8,2.9-2.6c1-0.6,2.3-1.2,3.7-1.6
	c1.5-0.4,2.9-0.7,4.3-0.7c1.9,0,3.6,0.1,5,0.4c1.4,0.3,2.7,0.8,3.9,1.7c1.2,0.8,2.1,2,2.7,3.5c0.6,1.5,0.9,3.3,0.9,5.6
	c0,3.3,0,6.2-0.1,8.7c-0.1,2.5-0.1,5.3-0.1,8.3c0,0.9,0.2,1.6,0.5,2.1c0.3,0.5,0.8,1,1.4,1.3c0.3,0.2,0.9,0.3,1.6,0.3
	c0.7,0,1.5,0,2.3,0V91.1z M233.5,73c-1.9,0.6-3.7,1.1-5.1,1.7c-1.5,0.6-2.8,1.2-4.1,2.1c-1.1,0.8-2.1,1.7-2.7,2.8
	c-0.7,1.1-1,2.3-1,3.8c0,1.9,0.5,3.3,1.5,4.2c1,0.9,2.3,1.3,3.8,1.3c1.6,0,3.1-0.4,4.3-1.2c1.2-0.8,2.3-1.7,3.1-2.8L233.5,73z"/>
<path class="st0" d="M264.8,91.8h-16.5v-2.3c0.5,0,1.1-0.1,1.7-0.2c0.6-0.1,1.1-0.1,1.5-0.3c0.6-0.2,1.1-0.6,1.4-1.1
	c0.3-0.5,0.5-1.2,0.5-2V46.7c0-0.8-0.2-1.6-0.5-2.3c-0.4-0.7-0.8-1.3-1.4-1.7c-0.4-0.3-1.2-0.5-2.3-0.8s-2-0.4-2.6-0.4v-2.2
	l12.8-0.8l0.5,0.5v46.5c0,0.8,0.1,1.5,0.4,2c0.3,0.5,0.8,0.9,1.4,1.2c0.5,0.2,1,0.4,1.5,0.5c0.5,0.1,1,0.2,1.7,0.2V91.8z"/>
<path class="st0" d="M285,91.8h-16.5v-2.3c0.5,0,1.1-0.1,1.7-0.2c0.6-0.1,1.1-0.1,1.5-0.3c0.6-0.2,1.1-0.6,1.4-1.1
	c0.3-0.5,0.5-1.2,0.5-2V46.7c0-0.8-0.2-1.6-0.5-2.3c-0.4-0.7-0.8-1.3-1.4-1.7c-0.4-0.3-1.2-0.5-2.3-0.8c-1.1-0.2-2-0.4-2.6-0.4v-2.2
	l12.8-0.8l0.5,0.5v46.5c0,0.8,0.1,1.5,0.4,2c0.3,0.5,0.8,0.9,1.4,1.2c0.5,0.2,1,0.4,1.5,0.5c0.5,0.1,1,0.2,1.7,0.2V91.8z"/>
<path class="st0" d="M320.9,74.4c0,2.4-0.4,4.7-1.1,7c-0.8,2.3-1.8,4.3-3.2,5.9c-1.6,1.8-3.4,3.2-5.5,4.1c-2.1,0.9-4.4,1.3-7,1.3
	c-2.2,0-4.2-0.4-6.2-1.2c-2-0.8-3.7-2-5.2-3.6c-1.5-1.5-2.7-3.4-3.6-5.6c-0.9-2.2-1.3-4.7-1.3-7.4c0-5.3,1.5-9.6,4.6-13
	c3.1-3.4,7.1-5.1,12.1-5.1c4.8,0,8.7,1.6,11.8,4.8C319.3,64.9,320.9,69.1,320.9,74.4z M313.7,74.5c0-1.7-0.2-3.5-0.5-5.5
	c-0.3-1.9-0.9-3.5-1.6-4.9c-0.7-1.4-1.7-2.6-2.9-3.4c-1.2-0.9-2.7-1.3-4.4-1.3c-1.8,0-3.3,0.4-4.5,1.3c-1.3,0.9-2.3,2.1-3,3.6
	c-0.7,1.4-1.3,3-1.6,4.8c-0.3,1.8-0.4,3.5-0.4,5.2c0,2.2,0.2,4.2,0.5,6.1c0.4,1.9,0.9,3.5,1.7,5c0.8,1.5,1.8,2.6,2.9,3.5
	c1.2,0.8,2.6,1.3,4.4,1.3c2.9,0,5.1-1.4,6.8-4.2C312.9,83.2,313.7,79.4,313.7,74.5z"/>
<path class="st0" d="M374.5,60c-1,0.1-2,0.5-3.1,1.2c-1.1,0.7-1.9,1.8-2.4,3.2c-1.1,3.4-2.2,6.6-3.3,9.6c-1,3-2.2,6.4-3.4,10.2
	c-0.4,1.2-0.8,2.5-1.3,3.9c-0.4,1.4-0.8,2.7-1.2,4H357l-9.1-25l-9.2,25h-2.8c-1.7-5.1-3.4-10.1-5-15.2c-1.6-5-3.1-9.4-4.4-13.1
	c-0.4-1.1-1.1-1.9-2.1-2.5c-1-0.6-2-1-3-1.1v-2.3h15.1v2.4c-0.8,0-1.6,0.1-2.5,0.4c-0.9,0.2-1.3,0.6-1.3,1.1c0,0.1,0,0.3,0.1,0.6
	c0.1,0.3,0.2,0.6,0.3,1c0.7,2.4,1.6,5.1,2.5,8.1c0.9,3,2.1,6.8,3.6,11.6l8.6-24.4h3.3l8.8,24c1-3.1,2-6,2.9-8.9
	c1-2.9,1.8-5.6,2.6-8.1c0.2-0.6,0.3-1.1,0.5-1.6c0.1-0.5,0.2-1,0.2-1.5c0-0.4-0.2-0.8-0.6-1.1c-0.4-0.3-0.8-0.6-1.3-0.8
	c-0.5-0.2-1-0.3-1.5-0.4c-0.5-0.1-0.9-0.1-1.2-0.1v-2.2h12.9V60z"/>
<path class="st0" d="M408.1,91.1c-1.1,0.4-2,0.7-2.8,0.9c-0.8,0.2-1.7,0.4-2.8,0.4c-1.8,0-3.2-0.4-4.3-1.3c-1.1-0.8-1.7-2.1-2-3.7
	h-0.2c-1.5,1.7-3.1,2.9-4.8,3.8c-1.7,0.9-3.8,1.3-6.2,1.3c-2.5,0-4.6-0.8-6.3-2.3c-1.6-1.6-2.5-3.6-2.5-6.1c0-1.3,0.2-2.5,0.6-3.5
	c0.4-1,0.9-2,1.7-2.8c0.6-0.7,1.3-1.3,2.3-1.8c0.9-0.5,1.8-1,2.6-1.3c1-0.4,3.1-1.1,6.3-2.2c3.2-1.1,5.3-1.9,6.4-2.5v-3.4
	c0-0.3-0.1-0.9-0.2-1.7c-0.1-0.8-0.4-1.7-0.8-2.4c-0.5-0.8-1.1-1.6-1.9-2.2c-0.8-0.6-2-0.9-3.6-0.9c-1.1,0-2,0.2-2.9,0.5
	c-0.9,0.4-1.5,0.7-1.9,1.1c0,0.5,0.1,1.1,0.3,2c0.2,0.9,0.3,1.7,0.3,2.5c0,0.8-0.4,1.5-1.1,2.2c-0.7,0.7-1.7,1-3,1
	c-1.1,0-2-0.4-2.5-1.2c-0.5-0.8-0.8-1.7-0.8-2.7c0-1.1,0.4-2.1,1.1-3c0.7-1,1.7-1.8,2.9-2.6c1-0.6,2.3-1.2,3.7-1.6
	c1.5-0.4,2.9-0.7,4.3-0.7c1.9,0,3.6,0.1,5,0.4c1.4,0.3,2.7,0.8,3.9,1.7c1.2,0.8,2.1,2,2.7,3.5c0.6,1.5,0.9,3.3,0.9,5.6
	c0,3.3,0,6.2-0.1,8.7c-0.1,2.5-0.1,5.3-0.1,8.3c0,0.9,0.2,1.6,0.5,2.1c0.3,0.5,0.8,1,1.4,1.3c0.3,0.2,0.9,0.3,1.6,0.3
	c0.7,0,1.5,0,2.3,0V91.1z M396,73c-1.9,0.6-3.7,1.1-5.1,1.7c-1.5,0.6-2.8,1.2-4.1,2.1c-1.1,0.8-2.1,1.7-2.7,2.8
	c-0.7,1.1-1,2.3-1,3.8c0,1.9,0.5,3.3,1.5,4.2c1,0.9,2.3,1.3,3.8,1.3c1.6,0,3.1-0.4,4.3-1.2c1.2-0.8,2.3-1.7,3.1-2.8L396,73z"/>
<path class="st0" d="M406.5,102.8c0-1.1,0.3-2.1,0.9-2.8c0.6-0.7,1.4-1.1,2.4-1.1c0.7,0,1.4,0.1,1.9,0.4c0.5,0.3,1,0.6,1.4,1.1
	c0.3,0.3,0.7,0.8,1.1,1.4c0.4,0.6,0.7,1.1,0.9,1.5c1.1-0.6,2.5-2.2,4.1-4.8c1.6-2.6,2.7-4.9,3.5-6.9c-2.2-5.4-4.1-10.3-5.9-14.6
	c-1.8-4.3-3.6-8.7-5.5-13.3c-0.4-1.1-1.2-1.9-2.2-2.5c-1-0.6-2.1-1-3.1-1.1v-2.3h15.5v2.4c-0.7,0-1.5,0.2-2.5,0.4s-1.4,0.6-1.4,0.9
	c0,0.1,0.1,0.4,0.2,0.7c0.1,0.3,0.2,0.7,0.4,1c0.9,2.3,2.2,5.5,4,9.8c1.8,4.3,3.2,7.7,4.2,10.3c1-2.5,2.1-5,3.2-7.6
	c1.1-2.6,2.4-5.7,3.7-9.3c0.2-0.4,0.4-1,0.7-1.8c0.3-0.8,0.4-1.4,0.4-2c0-0.6-0.5-1.2-1.6-1.7c-1-0.5-2-0.8-3-0.9v-2.2h12.6V60
	c-0.7,0.1-1.6,0.5-2.7,1.2c-1.1,0.7-2,1.6-2.5,2.9c-2.7,6.3-5.2,12.1-7.3,17.3c-2.1,5.2-3.7,9-4.8,11.5c-1.4,3.2-2.7,5.7-3.9,7.5
	c-1.1,1.8-2.2,3.2-3.3,4.2c-1.1,1-2,1.6-2.9,1.9c-0.9,0.3-1.7,0.5-2.7,0.5c-1.8,0-3.2-0.4-4.2-1.3
	C407,104.9,406.5,103.9,406.5,102.8z"/>
<path class="st1" d="M515.8,47.2c0,7.7-5,13.3-15,16.7c2.9,1.5,4.5,4.2,4.8,8.2c0.1,1.2,0.2,2.8,0.2,4.6s-0.5,3.9-1.6,6.2
	c-1,2.3-2.6,4.3-4.5,6.1c-4.4,4-9.9,6-16.6,6c-7.2,0-13-2.2-17.5-6.5c-4.4-4.2-6.5-9.4-6.5-15.7c0-4.5,1.4-8.6,4.3-12.2
	c2.7-3.5,6.2-5.9,10.5-7.2c-1.9-1.9-2.8-3.8-2.8-5.7c0-1.9,0.3-3.5,1-5c0.7-1.4,1.6-2.6,2.8-3.6c2.6-2.1,5.9-3.2,10.2-3.2
	c4.9,0,8.3,0.8,10.1,2.3c0.5,0.4,0.7,0.8,0.7,1.1c0,0.3,0,0.8-0.1,1.6c-0.1,0.7-0.2,1.5-0.3,2.3c-0.3,2-0.7,2.9-1.3,2.9
	c-0.4,0-0.8-0.1-1.2-0.4c-0.4-0.3-0.7-0.6-0.8-1.1c-0.8-4.1-3.1-6.1-7.1-6.1c-2.2,0-4,0.8-5.4,2.4c-1.4,1.5-2,3.2-2,5.1
	c0,3.7,1.7,6.3,5,7.7c1,0.4,1.4,0.9,1.4,1.4c0,0.6-0.9,1-2.7,1.3c-1.8,0.3-3.6,1-5.5,1.9c-1.8,1-3.4,2.2-4.6,3.6
	c-2.6,3-3.8,6.8-3.8,11.4c0,4.9,1.7,9,5.1,12.5c3.5,3.5,7.8,5.3,13.1,5.3c6.8,0,11.4-2.8,13.6-8.3c0.8-1.9,1.2-3.8,1.2-5.8
	c0-2-0.2-3.5-0.5-4.7c-0.4-1.2-0.9-2.2-1.6-3.1c-1.6-2-3.8-2.9-6.5-2.9c-2.5,0-4.8,0.9-7,2.7c-2.1,1.7-3.4,3.7-4,6.1
	c1.6,0.5,2.5,1.5,2.5,2.9c0,0.9-0.3,1.6-0.8,2.1c-0.5,0.5-1.2,0.7-2,0.7c-0.8,0-1.5-0.4-2.2-1.2c-0.7-0.8-1-1.9-1-3.2
	c0-1.3,0.2-2.7,0.6-4.1c0.4-1.4,1.1-2.7,2.2-4c2.3-2.8,6.2-5,11.8-6.5c11-3.1,17.4-6.9,19.4-11.3c0.6-1.4,0.9-2.6,0.9-3.7
	c0-1.1-0.1-1.9-0.3-2.5c-0.2-0.6-0.5-1.1-0.8-1.5c-0.7-0.8-1.5-1.1-2.7-1.1c-1.1,0-1.8,0.6-1.9,1.8c1.2,0.3,1.8,0.9,1.8,1.8
	c0,0.7-0.2,1.1-0.6,1.5c-0.4,0.3-1,0.5-1.7,0.5c-0.7,0-1.4-0.3-1.8-0.9c-0.5-0.6-0.7-1.2-0.7-1.9c0-0.7,0.1-1.3,0.4-2
	c0.2-0.6,0.6-1.2,1-1.6c1.1-1.2,2.3-1.7,3.5-1.7c1.2,0,2.3,0.2,3.2,0.5c0.9,0.3,1.6,0.9,2.3,1.5C515,42.5,515.8,44.6,515.8,47.2z"/>
<path class="st0" d="M551.1,92.9c-2.9,0-5.7-0.6-8.4-1.7c-2.7-1.1-5-2.8-7.1-5c-2-2.2-3.7-4.8-4.9-7.9c-1.2-3.1-1.8-6.6-1.8-10.5
	s0.6-7.4,1.8-10.6c1.2-3.2,2.8-5.9,4.9-8.2c2.1-2.3,4.5-4,7.4-5.3c2.8-1.2,5.9-1.9,9.1-1.9c2.4,0,4.6,0.3,6.5,0.9
	c1.9,0.6,3.8,1.4,5.6,2.5l1.4-2.3h2.8l0.3,17.4h-2.8c-0.4-1.7-0.9-3.5-1.6-5.5c-0.7-2-1.6-3.7-2.6-5c-1.1-1.6-2.4-2.8-3.9-3.7
	c-1.5-0.9-3.2-1.3-5.2-1.3c-2.2,0-4.3,0.5-6.2,1.5c-1.9,1-3.6,2.4-5,4.4c-1.3,1.9-2.4,4.2-3.1,7.1c-0.8,2.9-1.1,6.1-1.1,9.6
	c0,3.1,0.4,6,1.2,8.6c0.8,2.6,1.9,4.9,3.4,6.9c1.5,2,3.2,3.5,5.2,4.6c2,1.1,4.2,1.7,6.7,1.7c1.9,0,3.6-0.3,5.1-0.9
	c1.6-0.6,2.9-1.4,4.1-2.3c1.1-1,2.2-2.2,3-3.4c0.9-1.3,1.6-2.7,2.1-4.2l2.6,1.2c-2,4.8-4.6,8.3-7.8,10.4
	C559.4,91.9,555.5,92.9,551.1,92.9z"/>
<path class="st0" d="M607,74.4c0,2.4-0.4,4.7-1.1,7c-0.8,2.3-1.8,4.3-3.2,5.9c-1.6,1.8-3.4,3.2-5.5,4.1c-2.1,0.9-4.4,1.3-7,1.3
	c-2.2,0-4.2-0.4-6.2-1.2c-2-0.8-3.7-2-5.2-3.6c-1.5-1.5-2.7-3.4-3.6-5.6c-0.9-2.2-1.3-4.7-1.3-7.4c0-5.3,1.5-9.6,4.6-13
	c3.1-3.4,7.1-5.1,12.1-5.1c4.8,0,8.7,1.6,11.8,4.8C605.5,64.9,607,69.1,607,74.4z M599.9,74.5c0-1.7-0.2-3.5-0.5-5.5
	c-0.3-1.9-0.9-3.5-1.6-4.9c-0.7-1.4-1.7-2.6-2.9-3.4c-1.2-0.9-2.7-1.3-4.4-1.3c-1.8,0-3.3,0.4-4.5,1.3c-1.3,0.9-2.3,2.1-3,3.6
	c-0.7,1.4-1.3,3-1.6,4.8c-0.3,1.8-0.4,3.5-0.4,5.2c0,2.2,0.2,4.2,0.5,6.1c0.4,1.9,0.9,3.5,1.7,5c0.8,1.5,1.8,2.6,2.9,3.5
	c1.2,0.8,2.6,1.3,4.4,1.3c2.9,0,5.1-1.4,6.8-4.2C599,83.2,599.9,79.4,599.9,74.5z"/>
<g>
	<path class="st0" d="M168.3,117.3h1.4v15.5h-1.4V117.3z"/>
	<path class="st0" d="M175.3,117.3h1.9l9.5,13.6h0v-13.6h1.4v15.5h-1.9l-9.5-13.6h0v13.6h-1.4V117.3z"/>
	<path class="st0" d="M197.1,118.6h-5.3v-1.3h12.1v1.3h-5.3v14.2h-1.4V118.6z"/>
	<path class="st0" d="M207.6,117.3h9.5v1.3H209v5.5h7.5v1.3H209v6.1h8.4v1.3h-9.9V117.3z"/>
	<path class="st0" d="M221.9,117.3h1.4v14.2h7.2v1.3h-8.7V117.3z"/>
	<path class="st0" d="M234.2,117.3h1.4v14.2h7.2v1.3h-8.7V117.3z"/>
	<path class="st0" d="M246.4,117.3h9.5v1.3h-8.1v5.5h7.5v1.3h-7.5v6.1h8.4v1.3h-9.9V117.3z"/>
	<path class="st0" d="M273.6,130.4c-1.5,2-3.5,2.8-5.8,2.8c-4.7,0-8-3.4-8-8.2c0-4.7,3.3-8.2,8-8.2c2.1,0,4,0.7,5.4,2.4l-1.2,1
		c-1-1.4-2.6-2.1-4.2-2.1c-4.1,0-6.6,3-6.6,6.8s2.5,6.8,6.6,6.8c1.6,0,3.5-0.7,4.6-2.4L273.6,130.4z"/>
	<path class="st0" d="M281,118.6h-5.3v-1.3h12.1v1.3h-5.3v14.2H281V118.6z"/>
	<path class="st0" d="M302.5,126.9c0,3.3-1.4,6.3-5.7,6.3c-4.2,0-5.7-3-5.7-6.3v-9.6h1.4v9.2c0,2.2,0.6,5.4,4.2,5.4
		c3.6,0,4.2-3.2,4.2-5.4v-9.2h1.4V126.9z"/>
	<path class="st0" d="M312.5,117.3h1.5l6.5,15.5h-1.6l-1.7-4.1H309l-1.8,4.1h-1.5L312.5,117.3z M313.2,118.9l-3.6,8.5h7.1
		L313.2,118.9z"/>
	<path class="st0" d="M324.1,117.3h1.4v14.2h7.2v1.3h-8.7V117.3z"/>
	<path class="st0" d="M343.4,117.3h4.5c2.2,0,5,0.9,5,4.1c0,2.8-2.2,4.1-4.7,4.1h-3.4v7.4h-1.4V117.3z M344.8,124.1h3.3
		c1.6,0,3.3-0.7,3.3-2.7c0-2-1.7-2.8-3.4-2.8h-3.2V124.1z"/>
	<path class="st0" d="M357.3,117.3h4.1c1.2,0,5.5,0,5.5,4.1c0,3-2.3,3.8-4,4l4.5,7.5h-1.6l-4.4-7.4h-2.7v7.4h-1.4V117.3z
		 M358.7,124.1h3.1c3,0,3.6-1.7,3.6-2.8c0-1.1-0.6-2.8-3.6-2.8h-3.1V124.1z"/>
	<path class="st0" d="M378.6,116.9c4.7,0,8,3.4,8,8.2c0,4.7-3.3,8.2-8,8.2c-4.7,0-8-3.4-8-8.2C370.6,120.3,373.9,116.9,378.6,116.9z
		 M378.6,131.9c4.1,0,6.6-3,6.6-6.8s-2.5-6.8-6.6-6.8s-6.6,3-6.6,6.8S374.6,131.9,378.6,131.9z"/>
	<path class="st0" d="M391.2,117.3h4.5c2.2,0,5,0.9,5,4.1c0,2.8-2.2,4.1-4.7,4.1h-3.4v7.4h-1.4V117.3z M392.7,124.1h3.3
		c1.6,0,3.3-0.7,3.3-2.7c0-2-1.7-2.8-3.4-2.8h-3.2V124.1z"/>
	<path class="st0" d="M405.1,117.3h9.5v1.3h-8.1v5.5h7.5v1.3h-7.5v6.1h8.4v1.3h-9.9V117.3z"/>
	<path class="st0" d="M419.5,117.3h4.1c1.2,0,5.5,0,5.5,4.1c0,3-2.3,3.8-4,4l4.5,7.5H428l-4.4-7.4h-2.7v7.4h-1.4V117.3z
		 M420.9,124.1h3.1c3,0,3.6-1.7,3.6-2.8c0-1.1-0.6-2.8-3.6-2.8h-3.1V124.1z"/>
	<path class="st0" d="M437.3,118.6H432v-1.3h12.1v1.3h-5.3v14.2h-1.4V118.6z"/>
	<path class="st0" d="M451.3,126.1l-5.7-8.8h1.7l4.7,7.4l4.8-7.4h1.6l-5.7,8.8v6.7h-1.4V126.1z"/>
	<path class="st0" d="M469.1,129.9c0.8,1.3,2,2,3.6,2c2,0,3.5-1.2,3.5-3c0-4.3-8-1.8-8-7.7c0-2.8,2.4-4.3,5-4.3c1.7,0,3.2,0.6,4.2,2
		l-1.2,0.9c-0.7-1-1.7-1.5-3-1.5c-1.9,0-3.5,1-3.5,2.9c0,4.7,8,1.9,8,7.7c0,2.8-2.3,4.4-4.8,4.4c-2,0-3.8-0.7-5-2.3L469.1,129.9z"/>
	<path class="st0" d="M482.2,117.3h4.5c2.2,0,5,0.9,5,4.1c0,2.8-2.2,4.1-4.7,4.1h-3.4v7.4h-1.4V117.3z M483.7,124.1h3.3
		c1.6,0,3.3-0.7,3.3-2.7c0-2-1.7-2.8-3.4-2.8h-3.2V124.1z"/>
	<path class="st0" d="M496.1,117.3h9.5v1.3h-8.1v5.5h7.5v1.3h-7.5v6.1h8.4v1.3h-9.9V117.3z"/>
	<path class="st0" d="M523.3,130.4c-1.5,2-3.5,2.8-5.8,2.8c-4.7,0-8-3.4-8-8.2c0-4.7,3.3-8.2,8-8.2c2.1,0,4,0.7,5.4,2.4l-1.2,1
		c-1-1.4-2.6-2.1-4.2-2.1c-4.1,0-6.6,3-6.6,6.8s2.5,6.8,6.6,6.8c1.6,0,3.5-0.7,4.6-2.4L523.3,130.4z"/>
	<path class="st0" d="M527.2,117.3h1.4v15.5h-1.4V117.3z"/>
	<path class="st0" d="M539,117.3h1.5l6.5,15.5h-1.6l-1.7-4.1h-8.2l-1.8,4.1h-1.5L539,117.3z M539.7,118.9l-3.6,8.5h7.1L539.7,118.9z
		"/>
	<path class="st0" d="M550.6,117.3h1.4v14.2h7.2v1.3h-8.7V117.3z"/>
	<path class="st0" d="M562.9,117.3h1.4v15.5h-1.4V117.3z"/>
	<path class="st0" d="M570.3,129.9c0.8,1.3,2,2,3.6,2c2,0,3.5-1.2,3.5-3c0-4.3-8-1.8-8-7.7c0-2.8,2.4-4.3,5-4.3c1.7,0,3.2,0.6,4.2,2
		l-1.3,0.9c-0.7-1-1.7-1.5-3-1.5c-1.9,0-3.5,1-3.5,2.9c0,4.7,8,1.9,8,7.7c0,2.8-2.3,4.4-4.8,4.4c-2,0-3.8-0.7-5-2.3L570.3,129.9z"/>
	<path class="st0" d="M586.8,118.6h-5.3v-1.3h12.1v1.3h-5.3v14.2h-1.4V118.6z"/>
	<path class="st0" d="M597.7,129.9c0.8,1.3,2,2,3.6,2c2,0,3.5-1.2,3.5-3c0-4.3-8-1.8-8-7.7c0-2.8,2.4-4.3,5-4.3c1.7,0,3.2,0.6,4.2,2
		l-1.3,0.9c-0.7-1-1.7-1.5-3-1.5c-1.9,0-3.5,1-3.5,2.9c0,4.7,8,1.9,8,7.7c0,2.8-2.3,4.4-4.8,4.4c-2,0-3.8-0.7-5-2.3L597.7,129.9z"/>
</g>
<path class="st1" d="M152.4,59.1c0.3,1,0.7,1.6,0.5,2c-2.1,5.8-3.1,12.1-8,16.8c-3,2.9-5.6,6.3-8,9.7c-2.6,3.6-0.9,7.4,0.1,11.1
	c0.6,2.1,1,4.3,1.3,6.5c0.4,3-0.9,5-3.6,6.3c-4,2-6.8,4.6-5.6,9.7c0.2,0.7,0.2,1.6-0.2,2.2c-3.2,4.9-6.4,9.8-10,14.4
	c-1,1.3-3,1.9-4.6,2.5c-2.3,0.9-4.6,1.5-6.9,2.3c-2.3,0.8-3.9,0.2-4.6-2.2c-0.2-0.8,0.2-2-0.2-2.5c-4.5-6.1-4.9-14-8.7-20.3
	c-2.5-4.2-2.7-7.8-0.9-11.9c2.5-5.4,0.4-10-2.7-14.1c-2.3-3-4.9-5.6-3-9.9c0.4-0.8-0.7-2.9-1.7-3.5c-2.1-1.3-4.5-2.2-6.8-3
	c-1.2-0.4-2.6-0.4-3.9-0.3c-5.3,0.6-10.7,2.2-15.8,1.5c-3.3-0.4-6.4-4-9.1-6.6c-1.8-1.7-3.2-4.1-4.2-6.5c-0.8-1.8-1.1-4.1-0.8-6
	c0.4-3.1,1.3-6.1,2.2-9.2c0.6-2.1,1-4.5,2.4-5.9c2.6-2.8,5.8-4.9,8.6-7.4c1-0.9,1.8-2,2.3-3.2c1.8-4.1,6.1-6.3,10.5-5.5
	c1,0.2,2.1-0.3,3.2-0.4c4.4-0.3,8.9-0.7,13.3-0.8c0.6,0,1.7,1.7,1.7,2.6c0.2,2.3,0.8,3.8,3.4,4c0.8,0.1,1.6,0.6,2.2,1.2
	c2.7,2.4,5,2.8,7.4-0.5c0.6-0.8,2.4-0.8,3.6-0.8c3,0.1,6.1,0.4,9.1,0.9c1.2,0.2,2.7,0.9,3.4,1.9c2.6,3.5,4.9,7.2,7.2,10.9
	c1.4,2.2,2.5,4.8,4.2,6.8c3.3,3.6,6.9,7,10.6,10.2c0.8,0.7,2.7,0.6,4,0.3C147.1,61.3,149.6,60.2,152.4,59.1z"/>
<path class="st2" d="M514.3,45.7c0,7.7-5,13.3-15,16.7c2.9,1.5,4.5,4.2,4.8,8.2c0.1,1.2,0.2,2.8,0.2,4.6s-0.5,3.9-1.6,6.2
	c-1,2.3-2.6,4.3-4.5,6.1c-4.4,4-9.9,6-16.6,6c-7.2,0-13-2.2-17.5-6.5c-4.4-4.2-6.5-9.4-6.5-15.7c0-4.5,1.4-8.6,4.3-12.2
	c2.7-3.5,6.2-5.9,10.5-7.2c-1.9-1.9-2.8-3.8-2.8-5.7c0-1.9,0.3-3.5,1-5c0.7-1.4,1.6-2.6,2.8-3.6c2.6-2.1,5.9-3.2,10.2-3.2
	c4.9,0,8.3,0.8,10.1,2.3c0.5,0.4,0.7,0.8,0.7,1.1c0,0.3,0,0.8-0.1,1.6c-0.1,0.7-0.2,1.5-0.3,2.3c-0.3,2-0.7,2.9-1.3,2.9
	c-0.4,0-0.8-0.1-1.2-0.4c-0.4-0.3-0.7-0.6-0.8-1.1c-0.8-4.1-3.1-6.1-7.1-6.1c-2.2,0-4,0.8-5.4,2.4c-1.4,1.5-2,3.2-2,5.1
	c0,3.7,1.7,6.3,5,7.7c1,0.4,1.4,0.9,1.4,1.4c0,0.6-0.9,1-2.7,1.3c-1.8,0.3-3.6,1-5.5,1.9c-1.8,1-3.4,2.2-4.6,3.6
	c-2.6,3-3.8,6.8-3.8,11.4c0,4.9,1.7,9,5.1,12.5c3.5,3.5,7.8,5.3,13.1,5.3c6.8,0,11.4-2.8,13.6-8.3c0.8-1.9,1.2-3.8,1.2-5.8
	c0-2-0.2-3.5-0.5-4.7c-0.4-1.2-0.9-2.2-1.6-3.1c-1.6-2-3.8-2.9-6.5-2.9c-2.5,0-4.8,0.9-7,2.7c-2.1,1.7-3.4,3.7-4,6.1
	c1.6,0.5,2.5,1.5,2.5,2.9c0,0.9-0.3,1.6-0.8,2.1c-0.5,0.5-1.2,0.7-2,0.7c-0.8,0-1.5-0.4-2.2-1.2c-0.7-0.8-1-1.9-1-3.2
	c0-1.3,0.2-2.7,0.6-4.1c0.4-1.4,1.1-2.7,2.2-4c2.3-2.8,6.2-5,11.8-6.5c11-3.1,17.4-6.9,19.4-11.3c0.6-1.4,0.9-2.6,0.9-3.7
	c0-1.1-0.1-1.9-0.3-2.5c-0.2-0.6-0.5-1.1-0.8-1.5c-0.7-0.8-1.5-1.1-2.7-1.1c-1.1,0-1.8,0.6-1.9,1.8c1.2,0.3,1.8,0.9,1.8,1.8
	c0,0.7-0.2,1.1-0.6,1.5c-0.4,0.3-1,0.5-1.7,0.5c-0.7,0-1.4-0.3-1.8-0.9c-0.5-0.6-0.7-1.2-0.7-1.9c0-0.7,0.1-1.3,0.4-2
	c0.2-0.6,0.6-1.2,1-1.6c1.1-1.2,2.3-1.7,3.5-1.7c1.2,0,2.3,0.2,3.2,0.5c0.9,0.3,1.6,0.9,2.3,1.5C513.6,41.1,514.3,43.1,514.3,45.7z"
	/>
<path class="st2" d="M150.9,57.6c0.3,1,0.7,1.6,0.5,2c-2.1,5.8-3.1,12.1-8,16.8c-3,2.9-5.6,6.3-8,9.7c-2.6,3.6-0.9,7.4,0.1,11.1
	c0.6,2.1,1,4.3,1.3,6.5c0.4,3-0.9,5-3.6,6.3c-4,2-6.8,4.6-5.6,9.7c0.2,0.7,0.2,1.6-0.2,2.2c-3.2,4.9-6.4,9.8-10,14.4
	c-1,1.3-3,1.9-4.6,2.5c-2.3,0.9-4.6,1.5-6.9,2.3c-2.3,0.8-3.9,0.2-4.6-2.2c-0.2-0.8,0.2-2-0.2-2.5c-4.5-6.1-4.9-14-8.7-20.3
	c-2.5-4.2-2.7-7.8-0.9-11.9c2.5-5.4,0.4-10-2.7-14.1c-2.3-3-4.9-5.6-3-9.9c0.4-0.8-0.7-2.9-1.7-3.5c-2.1-1.3-4.5-2.2-6.8-3
	c-1.2-0.4-2.6-0.4-3.9-0.3c-5.3,0.6-10.7,2.2-15.8,1.5c-3.3-0.4-6.4-4-9.1-6.6c-1.8-1.7-3.2-4.1-4.2-6.5c-0.8-1.8-1.1-4.1-0.8-6
	c0.4-3.1,1.3-6.1,2.2-9.2c0.6-2.1,1-4.5,2.4-5.9c2.6-2.8,5.8-4.9,8.6-7.4c1-0.9,1.8-2,2.3-3.2c1.8-4.1,6.1-6.3,10.5-5.5
	c1,0.2,2.1-0.3,3.2-0.4c4.4-0.3,8.9-0.7,13.3-0.8c0.6,0,1.7,1.7,1.7,2.6c0.2,2.3,0.8,3.8,3.4,4c0.8,0.1,1.6,0.6,2.2,1.2
	c2.7,2.4,5,2.8,7.4-0.5c0.6-0.8,2.4-0.8,3.6-0.8c3,0.1,6.1,0.4,9.1,0.9c1.2,0.2,2.7,0.9,3.4,1.9c2.6,3.5,4.9,7.2,7.2,10.9
	c1.4,2.2,2.5,4.8,4.2,6.8c3.3,3.6,6.9,7,10.6,10.2c0.8,0.7,2.7,0.6,4,0.3C145.6,59.9,148.2,58.7,150.9,57.6z"/>
</svg>
