<svg id="Layer_1" data-name="Layer 1" xmlns="http://www.w3.org/2000/svg" viewBox="0 0 1048.61 99.01"><defs><style>.cls-1{fill:#fff;}</style></defs><title>hahn_new_logo</title><path class="cls-1" d="M5.1,94.06c4.36,0,7.13-1.9,7.13-6.85V9.46c0-3.34-1.16-6.4-3.93-6.4H0V0H37.56V3.06H32.18c-5.1,0-6.85,1.74-6.85,6.69V38.88H55.91V9c0-2.91-2.18-6.12-6.7-6.12H43.68V0H80.37V2.91h-5.1c-4.65,0-6.84,2.48-6.84,5.83V89c0,2.48,1.6,5.1,4.66,5.1h7.28v3.2H43.53v-3.2h4.95c4.81,0,7.28-1.75,7.28-5.39V44H25.33V87.5A6.36,6.36,0,0,0,32,93.91h5.24v3.35H0v-3.2Z"/><path class="cls-1" d="M127.55,0c2.33,9.32,6.4,24.75,12.66,47,7.43,26.5,11.8,40.47,13.11,42.22a11.18,11.18,0,0,0,9.17,4.81v3.2h-33.2v-3.2l.73-.15q8.29,0,8.3-6.11c0-6.85-3.06-13.69-4.8-20.53H103.81L101.05,77a34.49,34.49,0,0,0-1.75,9.76,7.27,7.27,0,0,0,2.91,6,12.8,12.8,0,0,0,7,1.74v2.77H82V94.35a21.21,21.21,0,0,0,4.08-.73c3.93-1,7.13-6.12,10.19-15.43,8.59-25.77,15.43-52,22.86-78.19Zm-8.74,15.14-13.4,47.47h26.5Z"/><path class="cls-1" d="M169.33,94.06c4.37,0,7.14-1.9,7.14-6.85V9.46c0-3.34-1.17-6.4-3.93-6.4h-8.3V0H201.8V3.06h-5.39c-5.09,0-6.84,1.74-6.84,6.69V38.88h30.58V9c0-2.91-2.19-6.12-6.7-6.12h-5.53V0h36.69V2.91h-5.1c-4.66,0-6.84,2.48-6.84,5.83V89c0,2.48,1.6,5.1,4.66,5.1h7.28v3.2H207.77v-3.2h4.95c4.8,0,7.28-1.75,7.28-5.39V44H189.57V87.5a6.35,6.35,0,0,0,6.7,6.41h5.24v3.35H164.24v-3.2Z"/><path class="cls-1" d="M263.68,84.45V8c0-2.48-1.46-5.1-4.51-5.1h-7.43V.15H275c11.06,19.36,27.66,49.21,39.16,70V31.89c0-13.25-.43-21.12-1.45-23.15C311.29,5,307.65,3.06,302,3.06V.15h28.25V3.06c-9,0-12.38,2.91-12.38,11.79V97.26h-2.76L267.61,11.94V81c0,8.16,3.06,13.25,12.09,13.25v3.06h-28V94.2C258.58,94.2,263.68,91.15,263.68,84.45Z"/><path class="cls-1" d="M382.05,11.21A15.27,15.27,0,0,1,394.72,5c8.15,0,13.83,6.7,13.83,14.71,0,7-5.09,14-15.58,21.11l2,4.8c3.64,8.88,9.32,19.8,16.75,32.91,3.64-4.81,7.13-11.5,7.13-18.06,0-7.13-3.2-10.77-9.61-10.77V46.74h24.46v3c-3.64.73-6.84,3.65-9.46,8.89-4.08,9.46-4.22,12.52-10.34,22.42,4.22,5.53,8,8.3,11.21,8.3s5.68-1.46,7.72-4.37l1.89,1a30.18,30.18,0,0,1-5.24,9,12.52,12.52,0,0,1-9.32,3.78c-4.51,0-9.46-2.62-14.7-7.86-5.54,5.39-11.65,8-18.2,8-14.56,0-25.92-13.11-25.92-27.81,0-10.05,6.55-19.08,19.8-27.08-2.62-9.9-3.79-15.87-3.79-18.49A23.76,23.76,0,0,1,382.05,11.21ZM371.86,63.77c0,10.34,9.32,29,21.84,29,3.06,0,6.41-1.46,10.19-4.23a176.07,176.07,0,0,1-21.84-41.64C375.21,50.23,371.86,55.91,371.86,63.77Zm23.59-56.2c-5.24,0-8.15,4.81-8.15,10.63A41.1,41.1,0,0,0,392.1,38c7.43-5.82,11.36-10.48,11.36-18.93C403.46,14.41,401.27,7.57,395.45,7.57Z"/><path class="cls-1" d="M471.31,94.06c4.37,0,7.13-1.9,7.13-6.85V9.46c0-3.34-1.16-6.4-3.93-6.4h-8.3V0h37.57V3.06h-5.39c-5.1,0-6.84,1.74-6.84,6.69V38.88h30.57V9c0-2.91-2.18-6.12-6.7-6.12h-5.53V0h36.69V2.91h-5.09c-4.66,0-6.85,2.48-6.85,5.83V89c0,2.48,1.61,5.1,4.66,5.1h7.28v3.2H509.75v-3.2h5c4.8,0,7.28-1.75,7.28-5.39V44H491.55V87.5a6.35,6.35,0,0,0,6.69,6.41h5.25v3.35H466.21v-3.2Z"/><path class="cls-1" d="M593.76,0c2.33,9.32,6.4,24.75,12.66,47,7.43,26.5,11.8,40.47,13.11,42.22a11.18,11.18,0,0,0,9.17,4.81v3.2H595.5v-3.2l.73-.15q8.29,0,8.3-6.11c0-6.85-3.06-13.69-4.8-20.53H570L567.26,77a34.49,34.49,0,0,0-1.75,9.76,7.27,7.27,0,0,0,2.91,6,12.82,12.82,0,0,0,7,1.74v2.77H548.18V94.35a21.21,21.21,0,0,0,4.08-.73c3.93-1,7.14-6.12,10.19-15.43C571,52.42,577.89,26.21,585.31,0ZM585,15.14,571.63,62.61h26.49Z"/><path class="cls-1" d="M635.54,94.06c4.37,0,7.14-1.9,7.14-6.85V9.46c0-3.34-1.17-6.4-3.93-6.4h-8.3V0H668V3.06h-5.39c-5.09,0-6.84,1.74-6.84,6.69V38.88h30.58V9c0-2.91-2.19-6.12-6.7-6.12h-5.53V0h36.69V2.91h-5.1c-4.66,0-6.84,2.48-6.84,5.83V89c0,2.48,1.6,5.1,4.66,5.1h7.28v3.2H674v-3.2h4.95c4.81,0,7.28-1.75,7.28-5.39V44H655.78V87.5a6.35,6.35,0,0,0,6.7,6.41h5.24v3.35H630.45v-3.2Z"/><path class="cls-1" d="M729.89,84.45V8c0-2.48-1.45-5.1-4.51-5.1H718V.15h23.3c11.06,19.36,27.66,49.21,39.16,70V31.89c0-13.25-.43-21.12-1.45-23.15-1.46-3.79-5.1-5.68-10.77-5.68V.15h28.24V3.06c-9,0-12.37,2.91-12.37,11.79V97.26h-2.77L733.82,11.94V81c0,8.16,3.06,13.25,12.09,13.25v3.06H718V94.2C724.8,94.2,729.89,91.15,729.89,84.45Z"/><path class="cls-1" d="M868.65.15V2.91h-4.81c-4.8,0-7.13,2.19-7.13,6.84V88.09c0,4.66,3.64,5.68,8.3,5.68,17.18,0,27.23-11.65,30.43-35.09h2.77c-.3,12.81-.73,30.14-.73,38.58H831.81V94.2h5.1c4.66,0,7-2.18,7-5.24V9c0-2.91-1.9-6.12-7.14-6.12h-5V.15Z"/><path class="cls-1" d="M942.61.15V2.91h-4.8c-4.8,0-7.13,2.19-7.13,6.84V88.09c0,4.66,3.64,5.68,8.3,5.68,17.18,0,27.22-11.65,30.42-35.09h2.77c-.29,12.81-.73,30.14-.73,38.58H905.78V94.2h5.09c4.66,0,7-2.18,7-5.24V9c0-2.91-1.89-6.12-7.13-6.12h-5V.15Z"/><path class="cls-1" d="M1022.4.15c13.4,0,26.21,10.77,26.21,25.18,0,18.06-15.14,25.63-31.88,25.63h-12.09v37c0,3.64,2.77,6.26,8.16,6.26H1017v3.06H979.74V94.2h5.68c4.37,0,6.7-2.18,6.7-6.84V8.44c0-3.78-2.77-5.53-8.15-5.53h-4.23V.15Zm11.8,25.18c0-6.69-1.46-12.08-4.37-16-3.35-4.37-8.44-6.55-14.85-6.55-7.13,0-10.34,1.16-10.34,8.44v37h8C1027.06,48.19,1034.2,40.62,1034.2,25.33Z"/></svg>