<?xml version="1.0" encoding="utf-8"?>
<!-- Generator: Adobe Illustrator 19.2.0, SVG Export Plug-In . SVG Version: 6.00 Build 0)  -->
<svg version="1.1" id="Layer_1" xmlns="http://www.w3.org/2000/svg" xmlns:xlink="http://www.w3.org/1999/xlink" x="0px" y="0px"
	 viewBox="0 0 205.3 82.6" style="enable-background:new 0 0 205.3 82.6;" xml:space="preserve">
<style type="text/css">
	.st0{fill:#0054A6;}
	.st1{fill:#C92445;}
</style>
<g>
	<g>
		<path class="st0" d="M56.6,23.5c4.5-1.9,7.4-5.6,7.4-11.1c0-3.7-1.1-6.4-3.2-8.6C58.4,1.4,54.6,0,49.1,0H38.3c3.6,1.8,6,4.8,7,8.7
			h3.3c3.3,0,5.4,1.4,5.4,4.3c0,2.7-2,4.4-5.4,4.4h-3.5c-1.6,5.5-6.4,9.2-13.1,10.2v8.5h10V25.1h4.4l7.3,10.9h11.5L56.6,23.5z"/>
	</g>
	<g>
		<path class="st0" d="M28,17.9c3.6,0,5.7-1.9,5.7-4.8c0-3.1-2.2-4.7-5.8-4.7h-4.7v9.5H28z M13.3,0h15.5c9.1,0,15,4.7,15,12.8
			c0,8.5-6.5,13-15.5,13h-4.9v10.3h-10L13.3,0L13.3,0z"/>
	</g>
</g>
<g>
	<polygon class="st0" points="1.2,0 1.2,0 11.2,0 11.2,10.1 	"/>
</g>
<g>
	<polygon class="st0" points="11.2,13 11.2,36.1 1.2,36.1 1.2,2.9 	"/>
</g>
<g>
	<g>
		<path d="M2.8,48.9v4.5h2c1.4,0,2.3-0.7,2.3-1.8v-0.9c0-1.1-0.9-1.8-2.3-1.8L2.8,48.9L2.8,48.9z M2.8,54.7v4.9H1.1V47.5h3.7
			c2.4,0,4,1.3,4,3.2v0.7c0,1.9-1.6,3.2-4,3.2L2.8,54.7L2.8,54.7z"/>
	</g>
	<g>
		<path d="M12.9,55.8h3.8l-1.9-6.3L12.9,55.8z M9.9,59.6l4-12.1h1.8l4,12.1h-1.8l-0.8-2.5h-4.7l-0.8,2.5H9.9z"/>
	</g>
	<g>
		<polygon points="28.8,48.9 25.5,48.9 25.5,59.6 23.8,59.6 23.8,48.9 20.5,48.9 20.5,47.5 28.8,47.5 		"/>
	</g>
	<g>
		<polygon points="38.2,59.6 31.5,59.6 31.5,47.5 38.2,47.5 38.2,48.9 33.2,48.9 33.2,52.9 37.7,52.9 37.7,54.2 33.2,54.2 
			33.2,58.3 38.2,58.3 		"/>
	</g>
	<g>
		<polygon points="41.4,59.6 41.4,47.5 42.9,47.5 47.8,56.3 47.8,47.5 49.5,47.5 49.5,59.6 48,59.6 43.1,50.9 43.1,59.6 		"/>
	</g>
	<g>
		<polygon points="60.5,48.9 57.2,48.9 57.2,59.6 55.5,59.6 55.5,48.9 52.2,48.9 52.2,47.5 60.5,47.5 		"/>
	</g>
	<g>
		<path d="M70,55.8h3.8l-1.9-6.3L70,55.8z M67.1,59.6l4-12.1h1.8l4,12.1H75l-0.8-2.5h-4.7l-0.8,2.5H67.1z"/>
	</g>
	<g>
		<polygon points="79.4,59.6 79.4,47.5 80.8,47.5 85.8,56.3 85.8,47.5 87.5,47.5 87.5,59.6 86,59.6 81,50.9 81,59.6 		"/>
	</g>
	<g>
		<g>
			<path d="M92.8,48.9v9.4H95c1.4,0,2.3-0.7,2.3-1.8v-5.8c0-1.1-0.9-1.8-2.3-1.8H92.8z M91.1,47.5H95c2.4,0,4,1.3,4,3.2v5.6
				c0,1.9-1.6,3.2-4,3.2h-3.9V47.5z"/>
		</g>
	</g>
	<g>
		<polygon points="114.8,48.9 111.5,48.9 111.5,59.6 109.8,59.6 109.8,48.9 106.5,48.9 106.5,47.5 114.8,47.5 		"/>
	</g>
	<g>
		<g>
			<path d="M119.2,48.9v4.5h2c1.4,0,2.3-0.7,2.3-1.8v-0.9c0-1.1-0.9-1.8-2.3-1.8L119.2,48.9L119.2,48.9z M119.2,59.6h-1.7V47.5h3.7
				c2.4,0,4,1.3,4,3.2v0.7c0,1.4-0.9,2.5-2.3,3l2.8,5.2H124l-2.5-4.9h-2.2L119.2,59.6L119.2,59.6z"/>
		</g>
	</g>
	<g>
		<path d="M130.6,55.8h3.8l-1.9-6.3L130.6,55.8z M127.6,59.6l4-12.1h1.8l4,12.1h-1.8l-0.8-2.5h-4.7l-0.8,2.5H127.6z"/>
	</g>
	<g>
		<g>
			<path d="M141.6,48.9v9.4h2.2c1.4,0,2.3-0.7,2.3-1.8v-5.8c0-1.1-0.9-1.8-2.3-1.8H141.6z M139.9,47.5h3.9c2.4,0,4,1.3,4,3.2v5.6
				c0,1.9-1.6,3.2-4,3.2h-3.9V47.5z"/>
		</g>
	</g>
	<g>
		<polygon points="158,59.6 151.3,59.6 151.3,47.5 158,47.5 158,48.9 153,48.9 153,52.9 157.5,52.9 157.5,54.2 153,54.2 153,58.3 
			158,58.3 		"/>
	</g>
	<g>
		<polygon points="161.2,59.6 161.2,47.5 162.6,47.5 166.2,55 169.7,47.5 171.1,47.5 171.1,59.6 169.5,59.6 169.5,51.2 166.6,57.4 
			165.7,57.4 162.8,51.2 162.8,59.6 		"/>
	</g>
	<g>
		<path d="M176.6,55.8h3.8l-1.9-6.3L176.6,55.8z M173.7,59.6l4-12.1h1.8l4,12.1h-1.8l-0.8-2.5h-4.7l-0.8,2.5H173.7z"/>
	</g>
	<g>
		<g>
			<path d="M187.7,48.9v4.5h2c1.4,0,2.3-0.7,2.3-1.8v-0.9c0-1.1-0.9-1.8-2.3-1.8L187.7,48.9L187.7,48.9z M187.7,59.6H186V47.5h3.7
				c2.4,0,4,1.3,4,3.2v0.7c0,1.4-0.9,2.5-2.3,3l2.8,5.2h-1.7l-2.5-4.9h-2.2L187.7,59.6L187.7,59.6z"/>
		</g>
	</g>
	<g>
		<path d="M198.9,53.4l4.2-5.8h1.9l-4.2,5.9l4.5,6.3h-1.9L198.9,53.4z M197.1,47.5h1.7v12.1h-1.7V47.5z"/>
	</g>
	<g>
		<path d="M2.9,74.6h3.8l-1.9-6.3L2.9,74.6z M0,78.5l4-12.1h1.8l4,12.1H8L7.2,76H2.5l-0.8,2.5H0z"/>
	</g>
	<g>
		<polygon points="18.9,67.7 15.6,67.7 15.6,78.5 13.9,78.5 13.9,67.7 10.6,67.7 10.6,66.4 18.9,66.4 		"/>
	</g>
	<g>
		<polygon points="29,67.7 25.6,67.7 25.6,78.5 23.9,78.5 23.9,67.7 20.7,67.7 20.7,66.4 29,66.4 		"/>
	</g>
	<g>
		<g>
			<path d="M37.6,69.4c0-1.1-1-1.8-2.3-1.8c-1.4,0-2.3,0.7-2.3,1.8v6.1c0,1.1,1,1.8,2.3,1.8c1.4,0,2.3-0.7,2.3-1.8V69.4z M35.3,78.6
				c-2.4,0-4-1.3-4-3.2v-5.9c0-1.9,1.7-3.2,4-3.2c2.4,0,4,1.3,4,3.2v5.9C39.3,77.3,37.6,78.6,35.3,78.6"/>
		</g>
		<g>
			<path d="M44.5,67.7v4.5h2c1.4,0,2.3-0.7,2.3-1.8v-0.9c0-1.1-0.9-1.8-2.3-1.8L44.5,67.7L44.5,67.7z M44.5,78.5h-1.7V66.4h3.7
				c2.4,0,4,1.3,4,3.2v0.7c0,1.4-0.9,2.5-2.3,3l2.8,5.2h-1.7l-2.5-4.9h-2.2L44.5,78.5L44.5,78.5z"/>
		</g>
	</g>
	<g>
		<polygon points="54,78.5 54,66.4 55.4,66.4 60.4,75.1 60.4,66.4 62.1,66.4 62.1,78.5 60.6,78.5 55.6,69.7 55.6,78.5 		"/>
	</g>
	<g>
		<polygon points="72.4,78.5 65.7,78.5 65.7,66.4 72.4,66.4 72.4,67.7 67.4,67.7 67.4,71.7 71.9,71.7 71.9,73.1 67.4,73.1 
			67.4,77.1 72.4,77.1 		"/>
	</g>
	<g>
		<polygon points="78.3,73.7 74.5,66.4 76.3,66.4 79.1,72.2 82,66.4 83.8,66.4 80,73.7 80,78.5 78.3,78.5 		"/>
	</g>
	<g>
		<g>
			<path d="M91.7,69.3c0-1-0.9-1.7-2.1-1.7c-1.2,0-2.1,0.6-2.1,1.7c0,0.7,0.3,1.3,1,1.6l3.4,1.8c1,0.6,1.6,1.6,1.6,2.7
				c0,2-1.7,3.1-3.9,3.1c-2.4,0-4-1.3-4-3.1v-0.6h1.7v0.6c0,1,0.9,1.8,2.3,1.8c1.3,0,2.2-0.6,2.2-1.7c0-0.7-0.3-1.3-1-1.6l-3.4-1.8
				c-1.1-0.6-1.6-1.6-1.6-2.7c0-2,1.6-3.1,3.8-3.1c2.3,0,3.9,1.2,3.9,3.1v0.6h-1.7L91.7,69.3L91.7,69.3z"/>
		</g>
	</g>
</g>
<g>
	<g>
		<g>
			<path class="st0" d="M85.5,18.6c0-6.2,4.7-11.4,11.3-11.4c3.8,0,6.2,1.1,8.4,3l-2.4,2.9c-1.7-1.4-3.4-2.4-6.2-2.4
				c-4.1,0-7.1,3.5-7.1,7.8c0,4.5,3,7.9,7.5,7.9c2.1,0,4-0.7,5.3-1.7v-4.1h-5.6v-3.4h9.4v9.2c-2.2,1.9-5.3,3.4-9.2,3.4
				C90,30,85.5,25.1,85.5,18.6"/>
		</g>
		<g>
			<path class="st0" d="M121.4,18.5c2.8,0,4.5-1.4,4.5-3.7c0-2.4-1.7-3.6-4.6-3.6h-5.6v7.4L121.4,18.5L121.4,18.5z M111.9,7.6h9.8
				c5.1,0,8.2,2.8,8.2,7c0,3.6-2.2,5.8-5.2,6.7l5.9,8.3H126l-5.5-7.7h-4.8v7.7h-3.9L111.9,7.6L111.9,7.6z"/>
		</g>
		<g>
			<path class="st0" d="M153.3,18.6c0-4.3-3.1-7.8-7.5-7.8s-7.4,3.5-7.4,7.8c0,4.3,3.1,7.8,7.5,7.8S153.3,22.9,153.3,18.6
				 M134.4,18.6c0-6.2,4.8-11.4,11.5-11.4c6.8,0,11.5,5.1,11.5,11.4c0,6.2-4.8,11.4-11.5,11.4S134.4,24.9,134.4,18.6"/>
		</g>
		<g>
			<path class="st0" d="M162.5,20.3V7.6h3.9v12.5c0,4.1,2.1,6.3,5.6,6.3c3.4,0,5.5-2.1,5.5-6.1V7.6h3.9v12.5c0,6.6-3.7,9.9-9.5,9.9
				C166.1,30,162.5,26.7,162.5,20.3"/>
		</g>
		<g>
			<path class="st0" d="M195.8,19.1c2.9,0,4.7-1.6,4.7-4c0-2.6-1.9-3.9-4.7-3.9h-4.5v7.9H195.8z M187.4,7.6h8.7
				c5.1,0,8.4,2.9,8.4,7.4c0,4.9-4,7.5-8.8,7.5h-4.4v7.1h-3.9L187.4,7.6L187.4,7.6z"/>
		</g>
	</g>
</g>
<g>
	<rect x="73.3" class="st1" width="3.9" height="36.1"/>
</g>
</svg>
