<?xml version="1.0" encoding="utf-8"?>
<!-- Generator: Adobe Illustrator 19.2.1, SVG Export Plug-In . SVG Version: 6.00 Build 0)  -->
<svg version="1.1" id="Слой_1" xmlns="http://www.w3.org/2000/svg" xmlns:xlink="http://www.w3.org/1999/xlink" x="0px" y="0px"
	 viewBox="0 0 557 340" style="enable-background:new 0 0 557 340;" xml:space="preserve">
<style type="text/css">
	.st0{fill:#FFFFFF;}
</style>
<g>
	<path class="st0" d="M52.4,333.7l497.4-92L506.3,6.6L8.9,98.6L52.4,333.7L52.4,333.7z M426.8,105.7L426.8,105.7
		c-4.3-23.3-4.2-22.6-9.1-48.8c15.6-2.9,41.9-9.6,46.5,14.8C468.8,99.1,443.3,102.6,426.8,105.7L426.8,105.7z M393.4,47.5
		L393.4,47.5c42.5-6.8,81.6-22.5,90.3,24.2c5.1,27.5-19,40.1-54.7,46c2.6,14,4.4,23.7,6,32.4c1.5,7.9,3.7,9,7.2,13.1
		c-5.2,0.3-16.4,2.4-25.8,5.3c1.6-7.3,2.6-6,1.3-14.8c-9.2-49.9-9.4-47.9-17.9-94.2C398.6,55.3,396.8,51.3,393.4,47.5L393.4,47.5z
		 M44.6,249.5L44.6,249.5L17.9,105.2l181.5-33.6l26.7,144.3L44.6,249.5L44.6,249.5z M234.4,214.6L234.4,214.6L207.7,70.3l140.9-26.1
		l26.7,144.3L234.4,214.6L234.4,214.6z M58.7,325L58.7,325l-12.5-67.6l482-89.2l12.5,67.6L58.7,325L58.7,325z M89.2,229.2
		L89.2,229.2c-9.4,1.7-14.3,2.5-22.7,4.4c2.1-6.7,2.6-8.8,1.7-13.5c-7.1-52.5-5.9-46.3-15.1-98.1c-1.7-4.4-4.5-6.8-6.7-9.6
		c19-3.5,13.9-2.5,31.3-5.7c25.8,48.1,31.7,57.1,48.4,86.3c7.8-37.6,10.4-46.2,20.1-99.2c16.3-3,6.6-1.2,28.9-5.3
		c-1.9,4.1-1.6,5.2-2,10.6c8.4,45.7,8.6,47.3,18.3,99.8c1.2,4.2,2.1,5.3,5.8,10.4c-17.7,3.4-8.1,1.6-26.4,5c1.3-6.1,2.5-8,2.5-12.1
		c-7.4-40.2-11.2-65-15.9-95c-9.5,45.1-19.9,93.1-24.3,113.6c-4.1,0.9-5.4,1.1-8.3,1.6c-16.7-28.1-34.8-58.7-57.6-98.5
		c0.8,1.7,10.3,55.9,17.2,92.9C85.9,225.4,88.1,227.1,89.2,229.2L89.2,229.2z M316.6,127.5L316.6,127.5c10.3,5,16.6,14.8,16.5,26.2
		c-0.4,38.8-50.3,42.3-70.4,39.3c1.2-7.1,1.1-13.3,0.3-20.5c11.8,13.1,48.3,10.6,51.1-12.9c0-4.8-1.1-8.7-4.8-12.4
		c-14.1-14-53.4-6-58.9-39.7C248.3,62,300.7,65,316.1,65c-0.6,7.5-0.2,13.1,0.8,20.8c-10.4-10-45.7-11.9-48.2,12.5
		C266.3,120.8,303.6,121,316.6,127.5z"/>
	<g>
		<path class="st0" d="M91.9,273c0.2-1.4,0.4-2.7,0.5-3.6c0.1-1,0.2-1.8,0.3-2.5c0-0.7,0.1-1.3,0.1-1.8s0-1,0-1.6
			c0.8-0.1,1.6-0.1,2.4-0.2c0.8-0.1,1.6-0.2,2.4-0.3c0.7-0.1,1.5-0.3,2.2-0.5c0.8-0.2,1.5-0.4,2.2-0.6c0.4,1.1,0.8,2.1,1.2,2.9
			c0.4,0.8,0.7,1.7,1.1,2.5s0.8,1.7,1.3,2.6c0.5,0.9,1.1,2,1.8,3.3l7.9,14.4c0.6,1,1.3,2.2,2.1,3.6c0.8,1.4,1.4,2.6,2.1,3.6
			c0.5,0.9,1,1.6,1.3,2.2c0.4,0.5,0.7,1,1,1.3c0.3,0.4,0.5,0.6,0.8,0.8c0.2,0.2,0.5,0.4,0.8,0.6c-0.8,0-1.5,0.1-2.3,0.1
			c-0.8,0.1-1.6,0.2-2.3,0.3s-1.5,0.3-2.2,0.5s-1.4,0.4-2.2,0.7c0-0.2,0-0.4,0-0.7s0-0.5-0.1-0.8c-0.1-0.5-0.3-1.2-0.7-2.1
			s-0.8-1.8-1.3-2.8l-2.7-5.2c-2.5,0.2-4.9,0.6-7.3,1c-1.3,0.2-2.6,0.5-3.9,0.8s-2.6,0.6-3.8,0.9l-0.5,5.1c-0.1,1.3-0.2,2.3-0.2,3.1
			c-0.1,0.8-0.1,1.4-0.1,1.8c0,0.4,0,0.8,0,1s0,0.4,0.1,0.6c0,0.2,0.1,0.3,0.1,0.5c0,0.1,0.1,0.3,0.2,0.6c-0.6,0-1.3,0.1-2,0.1
			s-1.3,0.1-2,0.3c-0.6,0.1-1.3,0.3-1.9,0.5c-0.7,0.2-1.3,0.4-1.9,0.6c0.4-1,0.7-1.9,1-2.6c0.2-0.8,0.5-1.6,0.7-2.5s0.4-2.1,0.6-3.4
			c0.2-1.3,0.5-3,0.8-5.1L91.9,273L91.9,273z M102.4,276L102.4,276c-0.4-0.8-0.7-1.5-1-2.1s-0.6-1.2-0.9-1.8s-0.6-1.2-0.8-1.8
			c-0.3-0.6-0.6-1.4-1-2.3c-0.2-0.4-0.3-0.8-0.5-1.1s-0.3-0.7-0.5-1.1l-2.8,21.6c1-0.1,2-0.2,3.1-0.4c1-0.1,2.1-0.3,3.1-0.5
			s2-0.4,3-0.6c1-0.2,2-0.5,3-0.7L102.4,276z"/>
		<path class="st0" d="M121.9,279.2c-0.5-2.8-0.6-5.6-0.3-8.2c0.4-2.7,1.2-5.1,2.6-7.3c1.4-2.2,3.3-4.1,5.8-5.7s5.7-2.7,9.4-3.4
			c2.9-0.5,5.4-0.7,7.2-0.5c1.9,0.2,3.4,0.4,4.6,0.6c-0.2,0.9-0.4,1.6-0.5,2.1c-0.1,0.6-0.2,1.1-0.2,1.6s-0.1,1,0,1.5
			c0,0.5,0.1,1.1,0.2,1.8c-0.5-0.5-1-1-1.6-1.4c-0.5-0.4-1.3-0.8-2.2-1.2c-1.3-0.5-2.6-0.8-3.8-0.8c-1.2-0.1-2.3,0-3.2,0.1
			c-2.5,0.5-4.6,1.3-6.2,2.6c-1.7,1.3-2.9,2.8-3.9,4.5c-0.9,1.7-1.5,3.7-1.7,5.7c-0.2,2.1-0.2,4.2,0.2,6.3c0.6,3.2,1.5,5.8,2.7,7.8
			s2.5,3.5,3.8,4.5c1.4,1.1,3.1,1.8,5.1,2.3s4,0.5,6,0.1c0.9-0.2,1.8-0.4,2.7-0.7s1.7-0.7,2.6-1.1c-0.2-1.1-0.3-2-0.4-2.8
			c-0.1-0.8-0.3-1.7-0.5-2.8c-0.3-1.5-0.5-2.7-0.7-3.6c-0.2-0.9-0.4-1.6-0.6-2.1c-0.2-0.5-0.4-0.9-0.7-1.1c-0.3-0.3-0.6-0.5-1-0.9
			c0.7-0.1,1.4-0.1,2.2-0.2s1.5-0.2,2.2-0.3s1.5-0.3,2.3-0.5s1.5-0.4,2.3-0.7c-0.4,0.8-0.6,1.4-0.7,1.9c-0.1,0.5,0,1.2,0,2.1
			c0,0.4,0.1,0.8,0.1,1.3c0.1,0.4,0.1,0.9,0.2,1.3c0.1,0.5,0.2,1,0.3,1.5c0.1,0.6,0.2,1.2,0.4,1.9c0.2,0.9,0.3,1.6,0.5,2.2
			c0.1,0.6,0.3,1.1,0.4,1.6c0.1,0.5,0.3,0.9,0.5,1.3c0.2,0.4,0.4,0.9,0.6,1.4c-0.3,0.1-0.6,0.2-0.9,0.3c-0.3,0.1-0.6,0.2-1,0.3
			s-0.8,0.3-1.3,0.4c-0.5,0.2-1.1,0.4-1.8,0.7s-1.5,0.6-2.3,0.8s-1.6,0.5-2.4,0.7c-0.8,0.2-1.5,0.4-2.2,0.6
			c-0.7,0.2-1.3,0.3-1.7,0.4c-2.8,0.5-5.5,0.5-8,0s-4.8-1.5-6.8-2.9s-3.7-3.3-5.1-5.6C123.4,285.1,122.5,282.4,121.9,279.2z"/>
		<path class="st0" d="M164.2,265.8c-0.5-2.1-0.8-3.8-1.1-5.1c-0.3-1.3-0.5-2.3-0.7-3c-0.2-0.8-0.3-1.4-0.4-1.8
			c-0.1-0.4-0.3-0.8-0.4-1.2c-0.4-1.1-0.7-1.9-0.9-2.4s-0.5-0.9-0.8-1.4c0.8-0.1,1.5-0.1,2.2-0.2s1.5-0.2,2.2-0.3
			c0.7-0.1,1.5-0.3,2.2-0.5s1.4-0.4,2.1-0.6c-0.2,0.9-0.3,1.6-0.4,2.4c-0.1,0.7-0.1,1.6,0,2.7s0.3,2.4,0.5,4
			c0.3,1.6,0.6,3.8,1.1,6.4l0.8,4.2c0.2,1.3,0.5,2.6,0.7,3.7c0.2,1.2,0.4,2.3,0.7,3.4c0.2,1.1,0.5,2.2,0.7,3.4
			c0.2,1.1,0.5,2.3,0.8,3.6c0.2,1.1,0.4,1.9,0.6,2.6c0.2,0.7,0.4,1.2,0.5,1.7c0.2,0.5,0.4,0.9,0.6,1.3c0.2,0.4,0.5,0.8,0.8,1.3
			c-0.8,0-1.5,0.1-2.2,0.1c-0.7,0.1-1.5,0.2-2.2,0.3s-1.5,0.3-2.2,0.5s-1.4,0.4-2.1,0.7c0.1-0.4,0.2-0.7,0.2-1.1
			c0.1-0.4,0.1-0.8,0.1-1.3s0-1.2-0.1-1.9c-0.1-0.8-0.2-1.7-0.3-2.9c-0.3-2.5-0.7-4.8-1.1-7c-0.4-2.2-0.8-4.5-1.3-7.1L164.2,265.8z"
			/>
		<path class="st0" d="M181.5,261.9c-0.3-1.7-0.6-3.3-0.9-4.7c-0.3-1.4-0.6-2.8-0.9-4.2c-0.2-0.8-0.4-1.4-0.6-2
			c-0.2-0.5-0.3-1-0.5-1.4s-0.3-0.8-0.5-1.1c-0.2-0.3-0.4-0.7-0.6-1c0.1,0,0.4,0,0.7,0s0.7-0.1,1.1-0.1c0.4,0,0.9-0.1,1.3-0.2
			c0.5-0.1,0.9-0.1,1.2-0.2c0.8-0.1,1.5-0.3,2.3-0.5c0.7-0.2,1.4-0.4,2.1-0.6c-0.1,0.2-0.1,0.5-0.2,0.8c-0.1,0.3-0.1,0.7-0.1,1.3
			c0,0.6,0,1.3,0,2.3s0.1,2.1,0.3,3.6s0.4,3.2,0.8,5.3c0.3,2.1,0.8,4.6,1.3,7.5c0.4,2,0.7,3.7,1,5.1c0.3,1.4,0.5,2.7,0.8,3.8
			c0.2,1.1,0.5,2.2,0.7,3.1c0.2,1,0.5,2,0.8,3c1,0,2,0,3.1-0.1c1-0.1,2.4-0.2,4.1-0.6c1.7-0.3,3-0.6,4.1-1c1-0.3,1.9-0.7,2.5-1.1
			c0.7-0.4,1.2-0.8,1.6-1.2c0.4-0.4,0.7-0.9,1.1-1.3c0,0.8,0,1.5,0,2.1s0,1.1,0,1.6s0,1,0.1,1.6c0,0.5,0.1,1.2,0.2,1.9
			c-0.9,0.1-1.8,0.3-2.5,0.3c-0.7,0.1-1.5,0.2-2.3,0.3s-1.7,0.3-2.8,0.5s-2.4,0.4-4,0.7c-1.8,0.3-3.2,0.6-4.3,0.8s-2.1,0.4-2.9,0.6
			c-0.8,0.2-1.6,0.4-2.4,0.6c-0.7,0.2-1.6,0.4-2.5,0.6c0.2-0.6,0.3-1.2,0.4-1.7c0.1-0.5,0.1-1.2,0.1-2.1c0-0.7-0.1-1.6-0.2-2.7
			c-0.1-1-0.3-2.1-0.4-3.3c-0.2-1.1-0.3-2.2-0.5-3.3s-0.4-2.1-0.5-2.9L181.5,261.9z"/>
		<path class="st0" d="M209.1,254.7c-0.4-1.8-0.7-3.3-0.9-4.5s-0.5-2.2-0.7-3.1c-0.3-0.8-0.5-1.6-0.8-2.4c-0.3-0.7-0.7-1.5-1.1-2.4
			c0.3,0,0.7,0,1.1-0.1c0.5,0,1-0.1,1.7-0.2s1.6-0.2,2.6-0.4c1-0.2,2.3-0.4,3.8-0.7c2.1-0.4,4.3-0.8,6.6-1.3s4.4-1,6.4-1.4
			c0.1,0.7,0.2,1.4,0.3,2s0.2,1.2,0.3,1.9c0.2,0.9,0.4,1.8,0.7,2.8c-0.5-0.4-1.1-0.8-1.6-1.1c-0.5-0.3-1.1-0.4-1.8-0.5
			s-1.5,0-2.6,0.1c-1,0.1-2.3,0.3-4,0.6c-1.1,0.2-2,0.4-2.8,0.5c-0.8,0.2-1.7,0.4-2.9,0.7c0.1,1.1,0.3,2.3,0.5,3.4s0.4,2.1,0.5,3.1
			l1.1,6.2c0.6-0.1,1.1-0.1,1.6-0.2s1-0.1,1.6-0.2c0.5-0.1,1.1-0.2,1.7-0.3c0.6-0.1,1.3-0.2,2-0.4c0.2,0,0.5-0.1,1-0.2
			c0.4-0.1,0.9-0.2,1.3-0.3c0.5-0.1,1-0.3,1.4-0.4c0.5-0.1,0.9-0.3,1.2-0.5c0.6-0.3,1-0.5,1.3-0.8s0.6-0.6,0.9-1
			c0,0.7,0,1.3,0.1,1.9c0,0.6,0.1,1.3,0.3,2.1c0.1,0.8,0.3,1.4,0.4,1.9c0.1,0.5,0.3,1,0.6,1.6c-0.4-0.2-0.8-0.3-1.1-0.4
			s-0.6-0.2-0.9-0.2c-0.3-0.1-0.6-0.1-1-0.1c-0.3,0-0.8,0-1.3,0c-0.8,0.1-1.5,0.1-2.2,0.2s-1.5,0.2-2.3,0.4
			c-0.8,0.2-1.7,0.3-2.7,0.5s-2,0.4-3.2,0.7l1.9,10.2c0.2,1.2,0.4,2.1,0.7,2.7c0.3,0.6,0.6,1.1,1.2,1.3c0.5,0.3,1.3,0.3,2.2,0.3
			c0.9-0.1,2.2-0.3,3.7-0.5c0.3-0.1,0.8-0.2,1.5-0.3c0.6-0.1,1.4-0.3,2.2-0.6c1-0.3,1.9-0.6,2.6-0.9c0.7-0.3,1.3-0.6,1.7-1
			c0.5-0.3,0.9-0.6,1.2-1c0.3-0.3,0.7-0.7,1-1.1c-0.2,0.8-0.3,1.6-0.3,2.2c-0.1,0.6-0.1,1.1-0.1,1.6s0,1,0,1.6c0,0.5,0,1.2,0.1,1.9
			c-1,0.1-2.4,0.3-4.3,0.6c-1.9,0.3-4.5,0.7-7.8,1.3c-1.4,0.3-2.6,0.5-3.7,0.7c-1,0.2-2,0.4-2.8,0.5c-0.8,0.2-1.6,0.4-2.3,0.5
			c-0.7,0.2-1.5,0.4-2.2,0.6c0.1-0.6,0.2-1.2,0.3-1.7s0.1-1.1,0.1-1.7c0-1.6-0.1-3.4-0.4-5.2c-0.3-1.8-0.6-3.7-0.9-5.5L209.1,254.7z
			"/>
		<path class="st0" d="M255,249c-0.5-2.1-0.8-3.8-1.1-5.1c-0.3-1.3-0.5-2.3-0.7-3c-0.2-0.8-0.3-1.4-0.4-1.8s-0.3-0.8-0.4-1.2
			c-0.4-1.1-0.7-1.9-0.9-2.4c-0.2-0.5-0.5-0.9-0.8-1.4c0.8-0.1,1.5-0.1,2.2-0.2s1.5-0.2,2.2-0.3c0.7-0.1,1.5-0.3,2.2-0.5
			s1.4-0.4,2.1-0.6c-0.2,0.9-0.3,1.6-0.4,2.4c-0.1,0.7-0.1,1.6,0,2.7s0.3,2.4,0.5,4c0.3,1.6,0.6,3.8,1.1,6.4l0.8,4.3
			c0.2,1.3,0.5,2.6,0.7,3.7c0.2,1.2,0.4,2.3,0.7,3.4c0.2,1.1,0.5,2.2,0.7,3.4c0.2,1.1,0.5,2.3,0.8,3.6c0.2,1.1,0.4,1.9,0.6,2.6
			c0.2,0.7,0.4,1.2,0.5,1.7c0.2,0.5,0.4,0.9,0.6,1.3c0.2,0.4,0.5,0.8,0.8,1.3c-0.8,0-1.5,0.1-2.2,0.1c-0.7,0.1-1.5,0.2-2.2,0.3
			s-1.5,0.3-2.2,0.5s-1.4,0.4-2.1,0.7c0.1-0.4,0.2-0.7,0.2-1.1c0.1-0.4,0.1-0.8,0.1-1.3s0-1.2-0.1-1.9c-0.1-0.8-0.2-1.7-0.3-2.9
			c-0.3-2.5-0.7-4.8-1.1-7s-0.8-4.5-1.3-7.1L255,249z"/>
		<path class="st0" d="M272.1,243.9c-0.5-2.5-0.9-4.5-1.3-6.1s-0.8-2.9-1.1-3.8c-0.4-1-0.7-1.7-0.9-2.1c-0.3-0.5-0.5-0.8-0.6-0.9
			c1-0.1,2-0.2,3.1-0.3c1.1-0.1,2.4-0.3,3.9-0.6c0.2,0,0.6-0.1,1.2-0.3c0.6-0.1,1.2-0.3,1.9-0.4c0.7-0.1,1.3-0.3,1.9-0.4
			s1-0.2,1.3-0.3c1.6-0.3,3.2-0.5,4.9-0.6c1.7-0.1,3.3,0,4.8,0.5s2.8,1.4,4,2.7c1.2,1.3,2,3.3,2.5,5.9c0.3,1.9,0.4,3.7,0.1,5.5
			s-0.9,3.5-2,5c-1.3,1.8-2.9,3.1-5,3.9c-2,0.9-4.1,1.5-6.3,1.9c-0.7,0.1-1.4,0.2-2.1,0.4c-0.7,0.1-1.5,0.2-2.5,0.4l0.3,1.9
			c0.6,3.2,1.1,5.6,1.6,7.4c0.5,1.8,0.9,3.1,1.2,4c0.3,0.9,0.6,1.5,0.9,1.7c0.2,0.3,0.4,0.4,0.6,0.6c-0.8,0.1-1.5,0.1-2.2,0.2
			c-0.7,0.1-1.5,0.2-2.2,0.4c-0.8,0.1-1.6,0.3-2.3,0.5c-0.8,0.2-1.5,0.4-2.2,0.6c0.1-0.1,0.1-0.4,0.3-0.8c0.1-0.4,0.2-1.1,0.2-2.1
			s-0.1-2.5-0.3-4.4c-0.2-1.9-0.6-4.4-1.2-7.7L272.1,243.9L272.1,243.9z M279.2,250.3L279.2,250.3c0.8-0.1,1.6-0.2,2.3-0.3
			c0.7-0.1,1.4-0.2,1.9-0.3c0.3,0,0.7-0.1,1.2-0.2s1.1-0.3,1.7-0.5s1.2-0.6,1.8-0.9c0.6-0.4,1.2-0.9,1.7-1.4c0.9-1,1.5-2.2,1.7-3.5
			s0.2-2.6,0-4c-0.4-2-1-3.5-2-4.4c-0.9-0.9-2-1.6-3.1-1.9s-2.2-0.4-3.3-0.3c-1.1,0.1-2,0.2-2.6,0.4c-0.8,0.2-1.5,0.3-2,0.4
			s-1.2,0.3-1.8,0.5c0.1,0.8,0.2,1.4,0.3,2.1c0.1,0.6,0.2,1.3,0.3,2c0.1,0.7,0.2,1.6,0.4,2.6c0.2,1,0.4,2.2,0.7,3.7L279.2,250.3z"/>
		<path class="st0" d="M318.7,242.7c-0.5-2.8-0.6-5.6-0.3-8.2c0.4-2.7,1.2-5.1,2.6-7.3c1.4-2.2,3.3-4.1,5.8-5.7s5.7-2.7,9.4-3.4
			c2.9-0.5,5.4-0.7,7.2-0.5c1.9,0.2,3.4,0.4,4.6,0.6c-0.2,0.9-0.4,1.6-0.5,2.1c-0.1,0.6-0.2,1.1-0.2,1.6s-0.1,1,0,1.5
			c0,0.5,0.1,1.1,0.2,1.8c-0.5-0.5-1-1-1.6-1.4c-0.5-0.4-1.3-0.8-2.2-1.2c-1.3-0.5-2.6-0.8-3.8-0.8c-1.2-0.1-2.3,0-3.2,0.1
			c-2.5,0.5-4.6,1.3-6.2,2.6c-1.7,1.3-2.9,2.8-3.9,4.5c-0.9,1.7-1.5,3.7-1.7,5.7c-0.2,2.1-0.1,4.2,0.2,6.3c0.6,3.2,1.5,5.8,2.7,7.8
			s2.5,3.5,3.8,4.5c1.4,1.1,3.1,1.8,5.1,2.3s4,0.5,6,0.1c0.9-0.2,1.8-0.4,2.7-0.7c0.9-0.3,1.7-0.7,2.6-1.1c-0.2-1.1-0.3-2-0.4-2.8
			s-0.3-1.7-0.5-2.8c-0.3-1.5-0.5-2.7-0.7-3.6s-0.4-1.6-0.6-2.1s-0.4-0.9-0.7-1.1c-0.3-0.3-0.6-0.5-1-0.9c0.7-0.1,1.4-0.1,2.2-0.2
			c0.7-0.1,1.5-0.2,2.2-0.3c0.7-0.1,1.5-0.3,2.3-0.5s1.5-0.4,2.3-0.7c-0.4,0.8-0.6,1.4-0.7,1.9s0,1.2,0,2.1c0,0.4,0.1,0.8,0.1,1.3
			c0.1,0.4,0.1,0.9,0.2,1.3c0.1,0.5,0.1,1,0.3,1.5c0.1,0.6,0.2,1.2,0.4,1.9c0.2,0.9,0.3,1.6,0.5,2.2c0.1,0.6,0.3,1.1,0.4,1.6
			s0.3,0.9,0.5,1.3s0.4,0.9,0.6,1.4c-0.3,0.1-0.6,0.2-0.9,0.3c-0.3,0.1-0.6,0.2-1,0.3c-0.4,0.1-0.8,0.3-1.3,0.4
			c-0.5,0.2-1.1,0.4-1.8,0.7c-0.7,0.3-1.5,0.6-2.3,0.8c-0.8,0.3-1.6,0.5-2.4,0.7s-1.5,0.4-2.2,0.6s-1.3,0.3-1.7,0.4
			c-2.8,0.5-5.5,0.5-8,0.1c-2.5-0.5-4.8-1.5-6.8-2.9s-3.7-3.3-5.1-5.6C320.3,248.7,319.3,245.9,318.7,242.7z"/>
		<path class="st0" d="M360.4,226.4c-0.3-1.9-0.7-3.5-1-4.9c-0.3-1.3-0.7-2.5-1-3.4s-0.6-1.7-0.9-2.3c-0.3-0.6-0.5-1.1-0.8-1.4
			c0.5,0,0.9,0,1.2,0c0.4,0,0.8,0,1.3-0.1s1.1-0.2,1.8-0.3c0.7-0.1,1.6-0.3,2.7-0.5c0.9-0.2,1.9-0.4,3-0.6c1.2-0.3,2.4-0.5,3.8-0.8
			c1.3-0.2,2.7-0.4,4.2-0.6c1.6-0.1,3.1,0,4.6,0.5s2.8,1.4,4,2.7c1.2,1.3,2,3.3,2.5,6.1c0.3,1.7,0.3,3.3-0.1,4.7
			c-0.4,1.4-0.9,2.7-1.6,3.7c-0.7,1.1-1.5,2-2.4,2.7s-1.6,1.2-2.3,1.5l7.4,8.1c1,1.1,1.8,2,2.5,2.8s1.4,1.4,2,2s1.2,1.1,1.8,1.5
			c0.6,0.4,1.2,0.9,2,1.3c-0.7,0-1.3,0.1-2,0.2c-0.6,0.1-1.3,0.1-1.9,0.3c-0.9,0.2-1.6,0.3-2.3,0.5c-0.7,0.2-1.5,0.4-2.6,0.7
			c-0.9-1.3-1.8-2.5-2.7-3.7c-1-1.2-1.9-2.4-2.9-3.6c-1.1-1.4-2.1-2.4-2.9-3.3c-0.8-0.8-1.4-1.5-2-2.1s-1-1-1.4-1.4
			s-0.9-0.7-1.3-1.1l-4.9,0.8l1.1,5.8c0.4,2,0.8,3.6,1.1,4.8c0.3,1.2,0.6,2.2,0.9,3.1s0.6,1.5,0.9,1.9s0.6,0.8,0.9,1.2
			c-0.8,0.1-1.5,0.1-2.3,0.2s-1.5,0.2-2.3,0.4c-0.7,0.1-1.5,0.3-2.2,0.5s-1.5,0.4-2.2,0.6c0.2-0.4,0.3-0.8,0.4-1.2
			c0.1-0.4,0.2-1.2,0.1-2.2c0-1.3-0.3-3.2-0.7-5.6c-0.4-2.4-1-5.6-1.6-9.4L360.4,226.4L360.4,226.4z M367.4,232.6L367.4,232.6
			c0.6,0,1.1-0.1,1.5-0.1c0.4-0.1,0.9-0.1,1.5-0.3c0.6-0.1,1.2-0.2,1.8-0.4c0.7-0.1,1.3-0.3,2-0.6c0.7-0.3,1.3-0.6,2-1
			c0.6-0.4,1.2-1,1.7-1.6s0.9-1.3,1.1-1.9s0.4-1.3,0.4-1.8c0.1-0.6,0.1-1.1,0-1.6c0-0.5-0.1-0.8-0.2-1.1c-0.3-1.4-0.7-2.5-1.3-3.4
			c-0.6-0.9-1.4-1.5-2.3-1.9s-1.9-0.7-3-0.7s-2.3,0-3.5,0.3l-4.3,1c0.1,1,0.2,1.8,0.3,2.6c0.1,0.7,0.2,1.4,0.3,2
			c0.1,0.6,0.2,1.3,0.3,1.9c0.1,0.6,0.2,1.4,0.4,2.2L367.4,232.6z"/>
		<path class="st0" d="M409.2,204.5c2.7-0.5,5.4-0.5,8-0.1c2.7,0.4,5.1,1.5,7.2,3.2s3.7,3.7,4.8,6.1c1.1,2.4,1.9,4.9,2.4,7.6
			c0.1,0.8,0.3,1.7,0.4,2.9c0.1,1.2,0.2,2.5,0.1,4s-0.3,3-0.7,4.6c-0.4,1.6-1,3.1-1.9,4.6c-0.8,1.4-1.7,2.5-2.7,3.5
			s-2.1,1.8-3.3,2.4c-1.2,0.6-2.3,1.2-3.5,1.5c-1.2,0.4-2.3,0.7-3.4,0.9c-1.1,0.2-2.2,0.3-3.3,0.4c-1.1,0.1-2.2,0-3.4-0.1
			c-2.8-0.3-5.3-1.3-7.5-2.9c-1.6-1.1-2.8-2.4-3.9-3.8c-1-1.4-1.8-2.8-2.4-4.2c-0.6-1.4-1-2.7-1.3-3.8c-0.3-1.2-0.5-2-0.6-2.6
			s-0.3-1.6-0.4-2.7c-0.1-1.2-0.2-2.5-0.1-4s0.3-3,0.7-4.6c0.4-1.6,1.1-3.2,2.1-4.7c1.3-2,3-3.7,5.1-5.1
			C403.8,206,406.3,205,409.2,204.5L409.2,204.5z M409.9,208.3L409.9,208.3c-1.1,0.2-2.1,0.5-2.9,0.9s-1.6,0.9-2.2,1.4
			c-1.3,1.1-2.2,2.3-2.9,3.7c-0.7,1.4-1.1,2.8-1.3,4.4c-0.2,1.5-0.2,3-0.1,4.6c0.1,1.5,0.3,2.9,0.5,4.2c0.6,3,1.3,5.4,2.2,7.2
			c0.9,1.8,1.8,3.1,2.7,4c1.1,1.2,2.6,2.1,4.3,2.8c1.7,0.7,3.7,0.9,6,0.4c2.3-0.4,4.3-1.4,5.9-3c1.2-1.3,2.1-2.8,2.7-4.6
			c0.6-1.8,0.9-3.6,0.8-5.6c0-2-0.2-3.9-0.6-5.8c-0.1-0.7-0.3-1.5-0.5-2.4s-0.5-1.8-0.8-2.7c-0.3-0.9-0.7-1.9-1.2-2.8
			s-1-1.8-1.6-2.6c-0.9-1.1-1.9-2-2.9-2.6s-2-1-3-1.3c-1-0.2-1.9-0.4-2.8-0.4C411.4,208.1,410.6,208.2,409.9,208.3z"/>
		<path class="st0" d="M462.9,206.2c-0.2-0.8-0.3-1.7-0.5-2.5s-0.3-1.6-0.5-2.3c-0.1-0.7-0.3-1.3-0.4-1.9c-0.1-0.5-0.2-0.9-0.3-1.1
			c-0.2-0.7-0.4-1.3-0.6-1.7c-0.2-0.4-0.4-0.8-0.8-1.3c1.3,0,2.5-0.1,3.7-0.3c0.6-0.1,1.2-0.3,1.8-0.5c0.6-0.2,1.2-0.4,1.8-0.6
			c-0.1,0.7-0.2,1.3-0.2,1.9s0,1.3,0,2.1c0.1,0.8,0.2,1.8,0.3,2.9c0.2,1.1,0.4,2.6,0.6,4.3l2.8,14.9c0.1,1.1,0.2,2.2,0.4,3.4
			c0.1,1.1,0.1,2.3,0,3.4s-0.4,2.2-0.9,3.3c-0.4,1.1-1.2,2.2-2.2,3.2c-1.3,1.4-2.9,2.4-4.7,3c-1.9,0.7-3.7,1.2-5.5,1.5
			c-0.7,0.1-1.6,0.2-2.5,0.3c-0.9,0.1-1.8,0.1-2.7,0.1c-0.9,0-1.8-0.1-2.6-0.2c-0.9-0.1-1.6-0.3-2.3-0.6c-1.4-0.5-2.5-1.2-3.4-2.1
			s-1.6-1.9-2.2-3.1c-0.6-1.1-1-2.4-1.3-3.6c-0.3-1.3-0.6-2.5-0.9-3.8l-2.6-14.2c-0.4-2.1-0.8-3.9-1.1-5.1c-0.3-1.3-0.6-2.3-0.8-3
			c-0.2-0.7-0.5-1.2-0.7-1.6c-0.2-0.3-0.5-0.7-0.8-1.1c0.8-0.1,1.5-0.1,2.2-0.2s1.5-0.2,2.2-0.3c0.8-0.1,1.5-0.3,2.3-0.5
			c0.7-0.2,1.5-0.4,2.2-0.6c-0.2,0.3-0.3,0.7-0.4,1.1s-0.2,1-0.2,1.9c0,1.3,0.1,2.7,0.3,4.2c0.2,1.5,0.5,2.8,0.7,4.1l2.2,12
			c0.3,1.5,0.5,2.8,0.8,3.9c0.2,1.1,0.6,2,1,2.9c0.9,2,2.3,3.3,4.1,4c1.8,0.7,4.1,0.8,6.9,0.3c2.3-0.4,4-1.1,5.1-2.2
			c1.1-1,1.8-2.2,2.2-3.5c0.4-1.3,0.5-2.8,0.3-4.4s-0.4-3.1-0.7-4.7L462.9,206.2z"/>
		<path class="st0" d="M479.4,205.5c-0.5-2.5-0.9-4.5-1.3-6.1s-0.8-2.9-1.1-3.8c-0.4-1-0.7-1.7-0.9-2.1c-0.3-0.5-0.5-0.8-0.6-0.9
			c1-0.1,2-0.2,3.1-0.3c1.1-0.1,2.4-0.3,3.9-0.6c0.2,0,0.6-0.1,1.2-0.3c0.6-0.1,1.2-0.3,1.9-0.4c0.7-0.1,1.3-0.3,1.9-0.4
			s1-0.2,1.3-0.3c1.6-0.3,3.2-0.5,4.9-0.6s3.3,0,4.8,0.5s2.8,1.4,4,2.7c1.2,1.3,2,3.3,2.4,5.9c0.3,1.9,0.4,3.7,0.1,5.5
			c-0.3,1.8-0.9,3.5-2,5c-1.3,1.8-2.9,3.1-4.9,3.9c-2,0.9-4.1,1.5-6.3,1.9c-0.7,0.1-1.4,0.2-2.1,0.3c-0.7,0.1-1.5,0.2-2.5,0.4
			l0.3,1.9c0.6,3.2,1.1,5.6,1.6,7.4s0.9,3.1,1.2,4c0.3,0.9,0.6,1.5,0.9,1.7c0.2,0.2,0.4,0.4,0.6,0.6c-0.8,0.1-1.5,0.1-2.2,0.2
			s-1.5,0.2-2.2,0.4c-0.8,0.1-1.6,0.3-2.3,0.5c-0.8,0.2-1.5,0.4-2.2,0.6c0.1-0.1,0.1-0.4,0.3-0.8c0.1-0.4,0.2-1.1,0.2-2.1
			s-0.1-2.5-0.3-4.4c-0.2-1.9-0.6-4.4-1.2-7.7L479.4,205.5L479.4,205.5z M486.5,211.9L486.5,211.9c0.8-0.1,1.6-0.2,2.3-0.3
			c0.7-0.1,1.4-0.2,1.9-0.3c0.3-0.1,0.7-0.1,1.2-0.2s1.1-0.3,1.7-0.5s1.2-0.6,1.8-0.9c0.6-0.4,1.2-0.9,1.6-1.4
			c0.9-1,1.5-2.2,1.7-3.5s0.2-2.6,0-4c-0.4-2-1-3.5-2-4.4c-0.9-0.9-2-1.6-3.1-1.9c-1.1-0.3-2.2-0.4-3.3-0.3c-1.1,0.1-2,0.2-2.6,0.4
			c-0.8,0.2-1.5,0.3-2,0.4s-1.2,0.3-1.8,0.5c0.1,0.8,0.2,1.4,0.3,2.1c0.1,0.6,0.2,1.3,0.3,2c0.1,0.7,0.2,1.6,0.4,2.6
			c0.2,1,0.4,2.2,0.6,3.7L486.5,211.9z"/>
	</g>
</g>
</svg>
